<mxfile host="app.diagrams.net" agent="Mozilla/5.0 (Windows NT 10.0; Win64; x64) AppleWebKit/537.36 (KHTML, like Gecko) Chrome/126.0.0.0 Safari/537.36" version="24.7.6">
  <diagram name="第 1 页" id="Qv9zpsmmS24sazK6a5ia">
    <mxGraphModel dx="320" dy="737" grid="1" gridSize="10" guides="1" tooltips="1" connect="1" arrows="1" fold="1" page="1" pageScale="1" pageWidth="827" pageHeight="1169" math="0" shadow="0">
      <root>
        <mxCell id="0" />
        <mxCell id="1" parent="0" />
        <mxCell id="Z0fIvfkE5pDTjnEpisLO-1" value="" style="shape=image;verticalLabelPosition=bottom;labelBackgroundColor=default;verticalAlign=top;aspect=fixed;imageAspect=0;image=data:image/png,iVBORw0KGgoAAAANSUhEUgAAB64AAAEECAYAAACYxxpRAAAAAXNSR0IArs4c6QAAIABJREFUeAHsvVmQXtV5752vUpWrXOYq5ZskFdvHrnzHlcEnPheJKxc+VUmKOBXKd8l3cc5FLgAbY0mAEGBmMBiZeRIGDGaSzQxmEGDMLMxMAINB6lZLrZZaQ0vd6peEWt/5r36fzfOuXnt4h9b7dvdPVV17v3uvvcbfWnvr+a9nrd/5nd/5nd8JJf8+/fTT8J//+Z/x75NPPgn8UQcwAAMwAAMwAAMwAAMwAAMwAAMwAAMwAAMwAAMwAAMwAAMwAAMwAAMwAAPdMmC6szTo3D/p1ouEaxOsu02M8AAKAzAAAzAAAzAAAzAAAzAAAzAAAzAAAzAAAzAAAzAAAzAAAzAAAzAAAzBQxYBE7FTAXiRc/9d//Ree1XiXwwAMwAAMwAAMwAAMwAAMwAAMwAAMwAAMwAAMwAAMwAAMwAAMwAAMwAAMLCkD0qbtX4dwjWjNzIeqmQ/cgw8YgAEYgAEYgAEYgAEYgAEYgAEYgAEYgAEYgAEYgAEYgAEYgAEYgIFBMmDidSFcyxV7kAkQF8DCAAzAAAzAAAzAAAzAAAzAAAzAAAzAAAzAAAzAAAzAAAzAAAzAAAzAAAzUMSCtuhCutY543QPcByoYgAEYgAEYgAEYgAEYgAEYgAEYgAEYgAEYgAEYgAEYgAEYgAEYgAEYgIFBMiCtOgrXeFsD1iDBIi54ggEYgAEYgAEYgAEYgAEYgAEYgAEYgAEYgAEYgAEYgAEYgAEYgAEY6IaBKFzjbQ003UBDWHiBARiAARiAARiAARiAARiAARiAARiAARiAARiAARiAARiAARiAARgYJAMI158A1CCBIi54ggEYgAEYgAEYgAEYgAEYgAEYgAEYgAEYgAEYgAEYgAEYgAEYgAEY6JaBKFx3+xDhAQ0GYAAGYAAGYAAGYAAGYAAGYAAGYAAGYAAGYAAGYAAGYAAGYAAGYAAGYGBQDCBc43EdBgUT8TAwwQAMwAAMwAAMwAAMwAAMwAAMwAAMwAAMwAAMwAAMwAAMwAAMwAAM9MIAwjXCNcI1DMAADMAADMAADMAADMAADMAADMAADMAADMAADMAADMAADMAADMAADAyVAYRrABwqgL3MtuAZZunAAAzAAAzAAAzAAAzAAAzAAAzAAAzAAAzAAAzAAAzAAAzAAAzAwMpiAOEa4RrhGgZgAAZgAAZgAAZgAAZgAAZgAAZgAAZgAAZgAAZgAAZgAAZgAAZgAAaGygDCNQAOFUBmwqysmTC0J+0JAzAAAzAAAzAAAzAAAzAAAzAAAzAAAzAAAzAAAzAAAzAAAzDQCwMI1wjXCNcwAAMwAAMwAAMwAAMwAAMwAAMwAAMwAAMwAAMwAAMwAAMwAAMwAAMwMFQGEK4BcKgA9jLbgmeYpQMDMAADMAADMAADMAADMAADMAADMAADMAADMAADMAADMAADMAADK4sBhGuEa4RrGIABGIABGIABGIABGIABGIABGIABGIABGIABGIABGIABGIABGIABGBgqAwjXADhUAJkJs7JmwtCetCcMwAAMwAAMwAAMwAAMwAAMwAAMwAAMwAAMwAAMwAAMwAAMwEAvDCBcI1wjXMMADMAADMAADMAADMAADMAADMAADMAADMAADMAADMAADMAADMAADMDAUBlAuAbAoQLYy2wLnmGWDgzAAAzAAAzAAAzAAAzAAAzAAAzAAAzAAAzAAAzAAAzAAAzAAAysLAYQrhGuEa5hAAZgAAZgAAZgAAZgAAZgAAZgAAZgAAZgAAZgAAZgAAZgAAZgAAZgYKgMIFwD4FABZCbMypoJQ3vSnjAAAzAAAzAAAzAAAzAAAzAAAzAAAzAAAzAAAzAAAzAAAzAAA70wgHCNcI1wDQMwAAMwAAMwAAMwAAMwAAMwAAMwAAMwAAMwAAMwAAMwAAMwAAMwAANDZQDhGgCHCmAvsy14hlk6MAADMAADMAADMAADMAADMAADMAADMAADMAADMAADMAADMAADMLCyGEC4RrhGuIYBGIABGIABGIABGIABGIABGIABGIABGIABGIABGIABGIABGIABGICBoTKAcA2AQwWQmTArayYM7Ul7wgAMwAAMwAAMwAAMwAAMwAAMwAAMwAAMwAAMwAAMwAAMwAAM9MIAwjXCNcI1DMAADMAADMAADMAADMAADMAADMAADMAADMAADMAADMAADMAADMAADAyVAYRrABwqgL3MtuAZZunAAAzAAAzAAAzAAAzAAAzAAAzAAAzAAAzAAAzAAAzAAAzAAAzAwMpiAOEa4RrhGgZgAAZgAAZgAAZgAAZgAAZgAAZgAAZgAAZgAAZgAAZgAAZgAAZgAAaGygDCNQAOFUBmwqysmTC0J+0JAzAAAzAAAzAAAzAAAzAAAzAAAzAAAzAAAzAAAzAAAzAAAzDQCwMjLVy35ubC4Ve2hv33bA7TN22KfzrXNd3rpcCDfKY1PxcO7Xg27Hvn5rD31Y3xT+e6pnuDTKuXuGbn58IzO58LN75/a7j4rcvjn851Tfd6iZNnGGhgAAZgAAZgAAZgAAZgAAZgAAZgAAZgAAZgAAZgAAZgAAZgAAZgAAYGzcBICtcSpqfWrwvbvvH1sOvYY8L0t/4p7P+Xf4h/Otc13VMYhR10pdTFNzP+q7B7y/8JH9/yp2Fi81+Evfd8Jey750vxT+e6pnsKo7B18Q36voTpf33238Pn7v5y+NJD/zN88dGvhT9+7K/in86/9NDXwuc2fzmGUdhBp098DFQwAAMwAAMwAAMwAAMwAAMwAAMwAAMwAAMwAAMwAAMwAAMwAAMwAAPdMDBSwvWRyV1RjJ745t+HmWP/MXz6b8eG8P99K/unewqjsBKw9Ww3Be8l7JGDO6IYPX7HV8LB+74UPn38z0LY8v9m/3RPYRRWArae7SXNbp7ZcXAiitFfuP+r4Y+e+Kvw+Rf+Jnzhpb/N/umewiisRG49201ahGWggQEYgAEYgAEYgAEYgAEYgAEYgAEYgAEYgAEYgAEYgAEYgAEYgAEYGBQDIyNcy3N6/JsLXtVlYnXZdXlj69ml9L6W5/T2OxY8q8vE6rLr8sbWs0vpfS3P6S/e+z+iV3WZWF12Xd7YehbvawaWQQ0sxANLMAADMAADMAADMAADMAADMAADMAADMAADMAADMAADMAADMAAD3TAwEsK1BOft3/h6mP3WMVnv6jLB2l8//K2F5cOXQryW4Kylvw8/+OWsd3WZYO2v61nFsRTitQRnLf39J0/9dda7ukyw9tf/5Mm/jkuLI14zgHQzgBAWXmAABmAABmAABmAABmAABmAABmAABmAABmAABmAABmAABmAABgbBwNCFay3xLW/pfkRrE7AlXiuuQS4briW+5S3dj2htArbiUFyDXDZ8x8xE9JbuR7Q2AVvitTyvFecg4CIOBikYgAEYgAEYgAEYgAEYgAEYgAEYgAEYgAEYgAEYgAEYgAEYgAEYgIEmDAxduNb+1Frq28Tnfo+KS3E2KXyTMNqfWkt9m/jc71FxKc4maTcJ86/P/XtPy4ObWJ0etWy49rxukjZhGGRgAAZgAAZgAAZgAAZgAAZgAAZgAAZgAAZgAAZgAAZgAAZgAAZgAAYGwcBQhetDW18OE9/8+4GJ1iZ6K07F3W8FaVnv8Tu+MjDR2kRvxTmIJcN/OfFs+ML9X+15efBUtC5+3//VoLj7rT+eZ5CCARiAARiAARiAARiAARiAARiAARiAARiAARiAARiAARiAARiAARhowsBQhWt5Rs8c+48DF64V5yC8ruUZffC+wXlbm3CtOAfhdS3P6D964q8GLlwrTryuGUCaDCCEgRMYgAEYgAEYgAEYgAEYgAEYgAEYgAEYgAEYgAEYgAEYgAEYgIFBMDA04bo1Nxe2fePr4dN/O3bgwrXi3P6Nrwel0Wsltebnwse3/Gn49PE/G7jHteJU3Eqj1/zNzc+Fz23+cvj8C38zcOFacSpupdFr/niOAQoGYAAGYAAGYAAGYAAGYAAGYAAGYAAGYAAGYAAGYAAGYAAGYAAGYKApA0MTrg+/sjXsOvaYgYvWtly44lYaTSsiDXdox7NhYvNfDFy0Nq9rxa000nSb/n5m53PhSw99beCitS0XrriVRtP8EI5BBwZgAAZgAAZgAAZgAAZgAAZgAAZgAAZgAAZgAAZgAAZgAAZgAAZgoFcGhiZc779nc5j+1j8tmXCtuJVGrxWz752bw957Br+/tQnXiltp9Jq/G9+/NXzx0aUTrhW30ug1fzzHoAQDMAADMAADMAADMAADMAADMAADMAADMAADMAADMAADMAADMAADMNCUgaEJ19M3bQr7/+Uflky4VtxKo2lFpOH2vrox7Ltn8Ptbm3CtuJVGmm7T3xe/dXn448cGv7+1eVwrbqXRND+EY9CBARiAARiAARiAARiAARiAARiAARiAARiAARiAARiAARiAARiAARjolQGE60/y8CBcI1z32ql4Lt+nqBfqBQZgAAZgAAZgAAZgAAZgAAZgAAZgAAZgAAZgAAZgAAZgAAZgoIyBoQnXLBXOUuFlUHKdAQsGYAAGYAAGYAAGYAAGYAAGYAAGYAAGYAAGYAAGYAAGYAAGYAAGVhcDQxOuD7+yNew69pglWypccSuNXoE+tOPZMLH5L4It7T3oo+JWGr3m75mdz4UvPbR0e1wrbqXRa/54bnUNJLQ37Q0DMAADMAADMAADMAADMAADMAADMAADMAADMAADMAADMAADMNAPA0MTrltzc2H7N74ePv23YwcuXivObd/4elAavVZOa34ufHzLn4ZPH/+zgYvXilNxK41e8zc3Pxc+t/nL4fMv/E2wfakHdVSciltp9Jo/nmNgggEYgAEYgAEYgAEYgAEYgAEYgAEYgAEYgAEYgAEYgAEYgAEYgAEYaMrA0IRrZXBq/bowc+w/Dly4VpyKu2kllIXbveX/hIP3fWngwrXiVNxl6Ta9/q/P/nv4oyf+auDCteJU3E3zQTgGHBiAARiAARiAARiAARiAARiAARiAARiAARiAARiAARiAARiAARiAgX4YGKpwfWjry2Him38/cOFacSrufipGz86M/yqM3/GVgQvXilNx95u/X048G75w/1cHLlwrTsXdb/54nsEJBmAABmAABmAABmAABmAABmAABmAABmAABmAABmAABmAABmAABmCgCQNDFa6VQXlG7/+XfxiYeK24BuFtbZUnz+h99wzO61pxDcLb2vInz+g/fmxwXteK61+fw9va6pcjAykMwAAMwAAMwAAMwAAMwAAMwAAMwAAMwAAMwAAMwAAMwAAMwAAMLD0DQxeuj0zuCuPf/Idw+FvH9C1ez37rmBiX4hwUPEcO7gjb7/hKOPzgl/v2vFYciktxDip/O2Ymwhfv/R/hT5786749r//kqb+OcSnOQeWPeJa+E1PH1DEMwAAMwAAMwAAMwAAMwAAMwAAMwAAMwAAMwAAMwAAMwAAMwMByZ2DowrUq8PArW8O2b3y9L/FaovV2xfHK1oGLrlrW++Nb/rQv8VqiteIYxBLhKXTP7HwufO7uL/clXku0/tzmLwfFlcbPbwY6GIABGIABGIABGIABGIABGIABGIABGIABGIABGIABGIABGIABGICBpWRgJIRrFVCCszyve1k2XM9Er+0lEK2t8iU4y1u6l2XD9YyeXQrR2vInwVme170sG65n9CyiNYON8cQRFmAABmAABmAABmAABmAABmAABmAABmAABmAABmAABmAABmAABo4mAyMjXKvQWuJb+1NPfPPvw8yx/xg+/bdjS5cP1z2FUVg9M8jlwcsaQEt8a3/q8Tu+Eg7e96Xw6eN/Vrp8uO4pjMLqmUEuD16Wvx0HJ4L2vP7C/V8Nf/TEX4XPv/A3pcuH657CKKye0bNl8XKdQQkGYAAGYAAGYAAGYAAGYAAGYAAGYAAGYAAGYAAGYAAGYAAGYAAGYGApGRgp4doKKu9ridFaPnzXsceE6W/9U/TElme1znVN9xRmKZYGt3yUHeU5LTFaS39PbP6LsPeeBU9seVbrXNd0T2GW0su6LH/ynJYYraW/v/TQ18IXH/1a9MSOntWPfi186aH/GZcWVxi8rBlgyjjiOmzAAAzAAAzAAAzAAAzAAAzAAAzAAAzAAAzAAAzAAAzAAAzAAAwcLQZGUri2wrfm5qIwvf+ezWH6pk3xT+cSq3XPwg3r2JqfC4d2PBv2vXNz2Pvqxvinc13TvWHly9KdnZ+LwvSN798aLn7r8vinc4nVumfhODLgwAAMwAAMwAAMwAAMwAAMwAAMwAAMwAAMwAAMwAAMwAAMwAAMwAAMDJOBkRauh1kxpE3HhAEYgAEYgAEYgAEYgAEYgAEYgAEYgAEYgAEYgAEYgAEYgAEYgAEYgIGjwwDC9SdHp6IBmnqGARiAARiAARiAARiAARiAARiAARiAARiAARiAARiAARiAARiAARiAgTwDCNcI1ywZDgMwAAMwAAMwAAMwAAMwAAMwAAMwAAMwAAMwAAMwAAMwAAMwAAMwAANDZQDhGgCHCiAzSvIzSqgX6gUGYAAGYAAGYAAGYAAGYAAGYAAGYAAGYAAGYAAGYAAGYAAGYGA1MYBwjXCNcA0DMAADMAADMAADMAADMAADMAADMAADMAADMAADMAADMAADMAADMAADQ2UA4RoAhwrgapolQlmZFQUDMAADMAADMAADMAADMAADMAADMAADMAADMAADMAADMAADMAADeQYQrhGuEa5hAAZgAAZgAAZgAAZgAAZgAAZgAAZgAAZgAAZgAAZgAAZgAAZgAAZgYKgMIFwD4FABZEZJfkYJ9UK9wAAMwAAMwAAMwAAMwAAMwAAMwAAMwAAMwAAMwAAMwAAMwAAMrCYGEK4RrhGuYQAGYAAGYAAGYAAGYAAGYAAGYAAGYAAGYAAGYAAGYAAGYAAGYAAGYGCoDCBcA+BQAVxNs0QoK7OiYAAGYAAGYAAGYAAGYAAGYAAGYAAGYAAGYAAGYAAGYAAGYAAGYCDPAMI1wjXCNQzAAAzAAAzAAAzAAAzAAAzAAAzAAAzAAAzAAAzAAAzAAAzAAAzAAAwMlQGEawAcKoDMKMnPKKFeqBcYgAEYgAEYgAEYgAEYgAEYgAEYgAEYgAEYgAEYgAEYgAEYgIHVxADCNcI1wjUMwAAMwAAMwAAMwAAMwAAMwAAMwAAMwAAMwAAMwAAMwAAMwAAMwAAMDJUBhGsAHCqAq2mWCGVlVhQMwAAMwAAMwAAMwAAMwAAMwAAMwAAMwAAMwAAMwAAMwAAMwAAM5BlAuEa4RriGARiAARiAARiAARiAARiAARiAARiAARiAARiAARiAARiAARiAARiAgaEygHANgEMFkBkl+Rkl1Av1AgMwAAMwAAMwAAMwAAMwAAMwAAMwAAMwAAMwAAMwAAMwAAMwsJoYQLhGuEa4hgEYgAEYgAEYgAEYgAEYgAEYgAEYgAEYgAEYgAEYgAEYgAEYgAEYgIGhMoBwDYBDBXA1zRKhrMyKggEYgAEYgAEYgAEYgAEYgAEYgAEYgAEYgAEYgAEYgAEYgAEYgIE8AwjXCNcI1zAAAzAAAzAAAzAAAzAAAzAAAzAAAzAAAzAAAzAAAzAAAzAAAzAAAzAwVAYQrgFwqAAyoyQ/o4R6oV5gAAZgAAZgAAZgAAZgAAZgAAZgAAZgAAZgAAZgAAZgAAZgAAZWEwMI1wjXCNcwAAMwAAMwAAMwAAMwAAMwAAMwAAMwAAMwAAMwAAMwAAMwAAMwAAMwMFQGEK4BcKgArqZZIpSVWVEwAAMwAAMwAAMwAAMwAAMwAAMwAAMwAAMwAAMwAAMwAAMwAAMwkGcA4RrhGuEaBmAABmAABmAABmAABmAABmAABmAABmAABmAABmAABmAABmAABmAABobKAMI1AA4VQGaU5GeUUC/UCwzAAAzAAAzAAAzAAAzAAAzAAAzAAAzAAAzAAAzAAAzAAAzAwGpiAOEa4RrhGgZgAAZgAAZgAAZgAAZgAAZgAAZgAAZgAAZgAAZgAAZgAAZgAAZgAAaGygDCNQAOFcDVNEuEsjIrCgZgAAZgAAZgAAZgAAZgAAZgAAZgAAZgAAZgAAZgAAZgAAZgAAbyDCBcI1wjXMMADMAADMAADMAADMAADMAADMAADMAADMAADMAADMAADMAADMAADMDAUBlAuAbAoQLIjJL8jBLqhXqBARiAARiAARiAARiAARiAARiAARiAARiAARiAARiAARiAARhYTQwgXCNcI1zDAAzAAAzAAAzAAAzAAAzAAAzAAAzAAAzAAAzAAAzAAAzAAAzAAAzAwFAZQLgGwKECuJpmiVBWZkXBAAzAAAzAAAzAAAzAAAzAAAzAAAzAAAzAAAzAAAzAAAzAAAzAQJ4BhGuEa4RrGIABGIABGIABGIABGIABGIABGIABGIABGIABGIABGIABGIABGIABGBgqAwjXADhUAJlRkp9RQr1QLzAAAzAAAzAAAzAAAzAAAzAAAzAAAzAAAzAAAzAAAzAAAzAAA6uJAYRrhGuEaxiAARiAARiAARiAARiAARiAARiAARiAARiAARiAARiAARiAARiAARgYKgMI1wA4VABX0ywRysqsKBiAARiAARiAARiAARiAARiAARiAARiAARiAARiAARiAARiAARjIM4BwjXCNcA0DMAADMAADMAADMAADMAADMAADMAADMAADMAADMAADMAADMAADMAADQ2UA4RoAhwogM0ryM0qoF+oFBmAABmAABmAABmAABmAABmAABmAABmAABmAABmAABmAABmBgNTGAcI1wjXANAzAAAzAAAzAAAzAAAzAAAzAAAzAAAzAAAzAAAzAAAzAAAzAAAzAAA0NlAOEaAIcK4GqaJUJZmRUFAzAAAzAAAzAAAzAAAzAAAzAAAzAAAzAAAzAAAzAAAzAAAzAAA3kGEK4RrhGuYQAGYAAGYAAGYAAGYAAGYAAGYAAGYAAGYAAGYAAGYAAGYAAGYAAGYGCoDCBcA+BQAWRGSX5GCfVCvcAADMAADMAADMAADMAADMAADMAADMAADMAADMAADMAADMAADKwmBhCuEa4RrmEABmAABmAABmAABmAABmAABmAABmAABmAABmAABmAABmAABmAABmBgqAwgXAPgUAFcTbNEKCuzomAABmAABmAABmAABmAABmAABmAABmAABmAABmAABmAABmAABmAgzwDCNcI1wjUMwAAMwAAMwAAMwAAMwAAMwAAMwAAMwAAMwAAMwAAMwAAMwAAMwAAMDJUBhGsAHCqAzCjJzyihXqgXGIABGIABGIABGIABGIABGIABGIABGIABGIABGIABGIABGICB1cQAwjXCNcI1DMAADMAADMAADMAADMAADMAADMAADMAADMAADMAADMAADMAADMAADAyVAYRrABwqgKtplghlZVYUDMAADMAADMAADMAADMAADMAADMAADMAADMAADMAADMAADMAADOQZQLhGuEa4hgEYgAEYgAEYgAEYgAEYgAEYgAEYgAEYgAEYgAEYgAEYgAEYgAEYgIGhMoBwDYBDBZAZJfkZJdQL9QIDMAADMAADMAADMAADMAADMAADMAADMAADMAADMAADMAADMLCaGEC4RrhGuIYBGIABGIABGIABGIABGIABGIABGIABGIABGIABGIABGIABGIABGICBoTKAcA2AQwVwNc0SoazMioIBGIABGIABGIABGIABGIABGIABGIABGIABGIABGIABGIABGICBPAMI1wjXCNcwAAMwAAMwAAMwAAMwAAMwAAMwAAMwAAMwAAMwAAMwAAMwAAMwAAMwMFQGEK4BcKgAMqMkP6OEeqFeYAAGYAAGYAAGYAAGYAAGYAAGYAAGYAAGYAAGYAAGYAAGYAAGVhMDCNcI1wjXMAADMAADMAADq5yB997/Tfj63/2v8IX/9t87/u68azNsrHI2VtN/jI5GWZ9//sWOPmZ9TtePRvqkgbEDBmAABmAABmAABmAABmAABmAABmBglBlAuMYYiZEMBlYMA3t/dn/Ydtya+HfgmedXTLl6fom0WmHmldfCjnN+ELZ/++SiblRHe+66h/qh7w+VgYH111YrfDI/P9Sy9NxHR4hBhOvR/A/LkcndYezUs+L4PXHeJWH+wIHeWKef9FZvDfvokV2TYfyU78d2mrziusq0EK5Hs6+thHGcMsAWDMAADMAADMAADMAADMAADMDASmBgJITrmbfeCdu/u75DVJGwIqFlbP3ZYeqW28Pc+ESlEUiNISHGRKsmx5xhyeelF2FHBkUZFpukb2FMYOvlWYtDR18eb0DzYcrOVf8q+3KF+u3Jg+EPNz4T/p9znggnPfZeaDU0NC7X8pLv/AvIjwHWr1ZKXR0+Mh+OueO1yPifX/9i2Hlgtra/7n/ymUWCtY0BvYxvK6UurRyPfjAVfv/Cp8LvnrslXPvKWG192nMc8/2v23rpt7/OHzoU9j3yRBg/4/xl/f7qtt66Cd/NuOGF68cf3xJ2756KfzMzM/SNIX5T+O+5noTr+flw4NkXwviZ54eV9l5s0he6/bbu9d3o28l/j+fyODs7W/SvrVt/Hf7269+IHth4XA/m3ZKrc65RtzAAAzAAAzAAAzAAAzAAAzAAAzCwfBgYaeHaBJZ4PH5tmLzyhjB/4GCpAdUbwTuebXtgptdyhiWE6+UDrx9o1j7+fhT0PvejZ8K7UxjZfd2spvOBeXAOUaQoa68nP9pTiKybXh0vHQft+SNTe8L4hnPjJBp5681sfTXIsG5/PXvtjWDdWJm7Oc7Ot8I/3/V6HDf+8oaXwtTMXG2ddhM/YevfJf32V4lweq8v94lXS8lKN+OGF64R0Or5Xcp283H363Htv2sRrhdWZEn/P+B/Hw3h2rcv/W50+ppvF85pFxiAARiAARiAARiAARiAARiAARgYHgMjJ1zvuvSqQlg5/N4HYc8dPyuW3pN8huloAAAgAElEQVRhaeL8S8OR6X1ZgcEL1/LCMoGm9JiJxxv4ejFeec+O8ZPPDIf+473afLQOHV4oT6sV5vfszYafuuWOwou7tGyuPCqzLVm44+yLwuxH27LxFnUzuTu0ZpencLN936Hw+SufiwLU/77/bbytV4iwyIvhsxeDVhAQ21pRQKyL+br68WPZ/qd+VRu+Lr6Vdn/rjn3hDy75ZazTC5/7iPpZhuMGwvVnY0Suf3Y7biCgVddnro6XwzX/LliNwvUnmW/rqm/qXid1+e/u3MTYMlbodyuz35W1N9dpbxiAARiAARiAARiAARiAARiAARioZ2DkhOucsUfLgU7demfYdvzaKN7uvuGWIENU2sBeuO7VOOcNfH0L16d8P4rFaT57+d1t2bwBraelJZeRiCHRSYKeRCiJUb3UL8/UDxbU0fDqqBeRFVGvvL26FfRgv7wuh1k3MF7dLt2OGwho1fU5TNb7Sdt/1/b6bdxP+qP4bLff1E3K4L+7c/+XKYuDfrcy+11Ze3Od9oYBGIABGIABGIABGIABGIABGICBegaWhXCthvSezGPf2xDkjZ028CAMUd7Ah3BdD1DaBkf7t/b51X6/Eq617K+W/z3aeSC90edkObeRRFbt2y7Gu1kKH1GvnMu3Jw+GP9z4TKxTbTOwnPlYzXmH8XLGexk3ENDK63M59zP/XYtwvdDGg/j/QsoEwvXK7D9pO/ObdoYBGIABGIABGIABGIABGIABGICBpWdg2QjXgmHfo1uK5bKn731okdgwCEOUN/AhXC89gP12cu31+7vnbol7/2ovz7L4jI2dP7gsaGn2mVffCFpCPXrxH782jJ96Vpi+98Eg7/6yOHTdhBLtGax9Jz+Znw8Hnn3hs7i03+qJpwSlo2Xiy+I6/MFv457tY2s2FEyPrT0j7L7x1uZe+q1WmHn9rbDrR9cEH8/2k9bHa4fefT+7MoHPk5am33v3vbH8tqKBPX/4Nx+W5t/iUH1p6frx088L27998mdlWbMhaNl/1VfdEvT9xmFt6/eo1HkTA72fEBP7u+r0ldc62lNL/jdhQ3Uy+/G22K5iQHnQcddVm8KRXbuDjS3d7serPdslWEu4rhJZjc20Hsp+l41v2opBY622Zejg6sRTwsRFP4q8i3tjoOoY2/axJ2N9Wp2IM/U3raIh/qqeVzrqq+pPHc9vODdM3/dwbX8ti1v12HQigNVrv31+/sDBMP3w4wv7jrdXD1GZVKdiLreKiPJfiCEnrAsHX9waFM/um34aNIHLGFP99Npf1W93nPODxu06zP5qbVHGdHpd22Wo/so46Hcctvx0y8bstrGgcUX5nbzuptK2V771vlL7Kuz4mefX95n2ailNxw1fN/0I134s1d7lxq7eacaq9f29m+8r77s99nmf/vQDv4jvHX0nWj0b51V9zddFv2yoP+v9HMeuk9bH9lMbqs/r22PvPQ9UtmXR74/r3JO5yQo69q5J+0PZ77p3Uq7PW33q+6fufVCU5fi14cBzL0Y2rH7TcX3fY0+G1tzCtjV6F8XvNG0TdNGPyplpMz95/c2xnsfWnh5mP/q4tN+rnf13g/qxb/uqc9WFvgf0DrPvR+VRXM1N7Cy26MHjevT//1DVztyj/WAABmAABmAABmAABmAABmAABmBguAwsK+FaQuDYSadFw5REMTNuGUS9GqLseR29wa9M2PHh03NvPK0zmqfPVv3utmyFoVAGv/MuiR7rVfEvx3sHZo+Ev/vJK1GA0lG/y8ph9ae6mH74sQ6R1Rtzq/ZQV9wmVKht58bGw+Q1NxZL2Pt4dJ7lp9UKMqZ7kTd9TkbkaAyuWK5d4tXklTeUph3jdEbiXL0oDaWVpl/8Pn5tkMBQKqjtnopsFeETA7tdrzIKHxlAHNa2lp4dq9K1+vD9dermn8bymoBv8dhx19WbKkX4qvocW392FCoUV51IYHmzY9Ol8I1Ny2/dMcenHzeqnp+4cGOY3ztd2t+Udwmp46edU87XcWtCIfhlWJdooXG+Kh/jG86N/dDqqslR+4Nrn3AJ19o3XJ6pVc9Zvfbc5/+vx/yhd94tBI1seY5fG8eS3CQP3yb7fvFEnFCQi0Njyv4nnykti0SVHd+/sLI+Vd+q97L6GHZ/tbbIlT93rfQdPKBx2PLTLRv6dtl12TWxLdRH4iSoEg7Vj8bWnB7DTt16V2nbpG3WdNzwzw1KuNbYMvPmO0ECYjft0k+f92P5nts3B43XubQ1vmuyVtl7Tdf7fUerfZWHsneJ5atK3PT93sLr2OR7zn/H+mfLzqveSQMZN3ZNFuOf+sz+p3712USk5LshLZ+YV77LVloyfo9M7VmYFHTcmti30v8fWDg7+u8G5cmuVx3FpwT0XD1q/NVkBI0Ful/Vtmka/fS7NC5+V7/PqR/qBwZgAAZgAAZgAAZgAAZgAAZgAAaWBwPLSrj2hjwJFjJUedB6MUT553XuDX45YScNn/72xtNSo3mJgTqNy//utmy+rlJDoI93OZ/f8+5k+L3ztsQ/nVeVpai/E9aFbSesi4KZjKeqJ02I2Hnx5YWRWWJ0mdHThAoJCfIkk2FaYtDB51+KccnIu+/xp2L8OX7kMWmitSZhTD/0aPTSkQi+57a7C2OujLSH3n43WyZ5/Oz84ZWF8VReePu3/DLGE8vz+pth8vLrYt7KDLIHnnmuyIc4lSeo8q7nVZaJ838Y4y8Vw1qtoL3mowH3+LXRUHzo9Tfj8zGOF7dGw62eL8uDBIK+42hvI6A0F/L+ctj+3VNjvkrTdf0v7a9qEwlKYkLxiREzRG8/8dQw89qb2TaZ/WhbGGt7UMqDTG2pNvXtauJTlUiQMtyNyCrPTKsHHeUJr/ZRfRx8/uWOe7qvsqfp6brKKy/F3TfdFmbeeKt4TtszyHvcxBhNnMgJrYozim3rzij4EI/GhzgTr+K2bIyM7XLBxs7n220y+9uPw547flZMuqibbJKWsVtBr98+r35sHqfiS6KZuFBdq06igCkP7BJBzdoktuV3TonhNEapHlSXGkNsQlfZuBHHDI1xEomOXxvHO2N85tevdwjapePfCPTXbhmX0J7zBh3EOCyu+mFD46zeRWoPjccpp/ZbIupCP14fv0/setWxm3HDx9OPgObHUjGt96LGQq2sIFbFsY0hccJK4gnfb5/36cd37AnrOjjXWK50Y13G91K+zgfBho9D36r+/aw6kKgtUb9S3JyfD+JX9aY/m8TT5HtO47ImQ9izGv/tvaj3gl0vjpO7s2P5QMYNv2rEcWvC7k0/ie/K+P1z38MdY6G+w9Lyqb5s/Mx9Uxm/TfuThS++CRuuzqJvwjhRMTOGFmy1+7MYq2xb9w2i/PTT76w8HJfHf7ppJ9oJBmAABmAABmAABmAABmAABmAABpoxsKyEa2+YzAke3hCVNc61DYDRWFdiqBuocH3ymYUAVhgIfR4kHmmp3Fb9vsy+bE0EOaVngpuWMZSwVpaHeL3Cy24UO9PhI/PhmDtei16Tf3nDS2FqZmFpybK8+vqT8Xpu+3iHUCBDb/Rgjkt5lguUJlRE8e6EdWHqljtKDb4y1vv8yAhs3joyxEoU9Pd1Lo9JE7Zl/M8J6NMPPBLFjmgcvXpT6fKZWqY0l4aM4TKm6/ky0c/Xh/hJvTA7vJs2Xp2tA5VHaUlcS8sZ73kPqR7jSOP1/bdJP/Fjiuoj51UtYU+ite5P3Xz74rI4Qa9M6I/bHNjy0N9tLkBd+8pYo6Xw03rQb2O1G6Fc9VG5xHyrFfbc+fNKIc2LHbE+nng6P8bNz4f9Tzy9aAKS8m6Ml9WnwohvlU19UZNFcnWQXtt5YDb8+fUvxnHjn+96PczO14+9Vo+99vk4KUYeg+vPjiJNmieN/1anmjCgZaR9GD+Wi0GFTd8ZRV2UeBsWok4J49GT8PxLF9q1ZILGIPq8L5fOu+2v6fPWNl0xPqBxWHmx9Htho6M+S8Z6/85oslSy1U+v40Y/AlrHWHrCuriU8uH3P+hg2fInxhXefuvYb5/vSF/CYWZijd77Jl7n3mu+vvt5RxdLVqs/f7Sto5xWZr1j41ibiJh2Pz1KCI3v7B5W0Om1nw1i3FA5OsawE9bF5b+1fUZaRo1rWuJbE1Tsnl8qP9dmMVyrFZfcV/3UrWBg8fpvQvVju1521KQ1+w7IsjU2Hsd45UF/CNfN/hNaVt9cp/5gAAZgAAZgAAZgAAZgAAZgAAZgYHUzsGyF65yh2huizHhUdsw9r87gDXyKr9sOkhpPy9K366l3SVl6vmxNjGwdhsJkKUZL2x+7MbKV5fFoXtd+1r9/4VNR1JORvi5tX3/yYMuF922fFSi9UHHcmuhRVrtHrzNK+/jL9jWVUG2eVVkRy+352NRAm5ZVIp+ElrI+YOGjYCsPz/beunZdR89XL/1kUHH4POnc13GTfuL769i6MxaJhopzfv+BsOOci6MxWvuVeqN6LIcT4MvEpSN7pwuv1rp6tzJpMoYmZWhJa03S0GQNu9fkaKJa0/SaxKkwfulieZqlz3UY+Gv2702f1W+JqBIoND5Nann29n6naVjfV3LtkobX702vjhcTAR79YGpR3nPPWD0qP/Ii7arPm9hxwrrovZ+LX9ck5Ik/paH9eX0439dK+7yEG20dIIE85djf+96G6PXq47fzor9rgkZmSWqfj177vKVlx277qz1nR2ubbhj3afY6Dqfp98KG4rBlkHNjve77vKZcWB7SYz/jxsCEa00meXRLB8dpPv3vQfT5jrG8gnP7Ftj+nVOCmPf58PXdDxv9iMw+P/68nzh9uZq8F2O6Axo3FJcfO+LKJUm9+3LmzotvlpJJNZocF/ec1jvj+ps72jQXn64ZB+q7TepE34QKW7Xyiq2OoHDdfFP30+/Kysf11f2fe9qf9ocBGIABGIABGIABGIABGIABGFjuDCBcO2FRjekNfL0Y573xVMaruj+E6+4HEe1Jq71pJehpr1oti1rXEc1IqeUyZ954Oxvei4tlQpgJJWrXbvmQ8BB5yAjBPv9V4fw+72Xiuo9r0XmrFXZdfm3Mh8RYibKLwrT7hDc27/3Z/R3hvLfgjnMvXuSRXRanvz6IOHx8Ovf9t4kx2vfXqr5YJRp4wa9KXDIvvKYiWzdL4af1oN/GatP0cnHIA05CrViwPzEooa2sD4gV3csJQ9k00jH4jbeLZW1zwriPw/p1XHp4MuPB5+I+MHsk/N1PXonjho767eMqO7d6LCtv2XO6riXN9Zzqq2zlAYXzHEqs93H6fqi+m3pbW9jo1a93TjK++H5WNq4pjrpw/n6vfd7yasdu+6s9Z0drm24YrxpfLV4dm4Sz9HthQ2n4SR45obdO2Pb5tfN+xo1+BDTPsETEKt4tr3bUO9mWsu61z/v0q95tVeN1kzZXnuvCdYz1ry9eWcXK3c2x6h1UF08v/cz3937GDeXNj2FV79mycmhij71zct89dcJ2Ll57d6jvqh/nwti1Dq/v718Y9K1o9/zRc4xw3f23va9Lzqk/GIABGIABGIABGIABGIABGIABGFjdDKxY4brOEFUGvjfwdStMKk5vPM0tZ16Wbt31boxsiqtfQ2FdfoZ5f+uOfeEPLvllFKC0X22TvFj9VbaJE3Vze6grnUKoSMShRnloi1h1Iov2x4x7n2a8L4v0Gxhbc3ny3sMy2Db9W9QX3PLYikP7dWrfTu1HmXok5/IRrw0iDidMKk7ff5uMAb6/Vhmaq0SDpm1iDNa1v8rRq8jq69ry1SQ9/5z2BN6/5emF5eTby5uXcbKIi08+iZ5mCl/Z15J28+lLuCpLr+x6k7R6FfSsHlNB2Oc5e+7Gk7J8566nHPqxPFfflrYXTSSs2fXojdieaJDGbWF09OJMdvwbgf7q86tza5tuGLfJBHXPVI3Dlg9Lv2s22vz7palTcdB7IZdtG2H5sGO/48aghOu0LJa/suMg+nzTsbyjPyTeuYNiw+9xre0O1O90TW1aVgd116veQXXPdvteVHwd9XTFdaX5rh03ku/Rph7RHWXyS4FvOLdje4m48sZl18R3RulS4pn3jb2PNQarH3ekl4T3kxq1Ik7ZKiB+rK4aa9O0+ul3aVz8Xt3/qaf9aX8YgAEYgAEYgAEYgAEYgAEYgIGVwsCyFa5zQkU3hqiyBvQGviqRoOx5bzzN5bHsubrr3ZbNG9B68XCpy8+w7svb+qTH3oui9ed+9Ex4d2qm0uBo+bT6q2sTMw6XhTOhok70sHT9sS5uC1vF4Gfpl3uOWzy5o+ciJ5qVXcv1BRnhd/3ommK/bf+s9gfdfeOtcQJFLh92bRBxWFw6+rqrM0YrvO+vVYZma7tcXyo8jGv2rv6s7er3uNYy1rYUvpa39mVset5NehZnbI9Lr2osHOe4sLqq8nq09HJH66uep7rzsv5q8WuZdS23rlUatPy6llO2e3XHXupRcXq26vLv76cc+j6bq2/Lv2ffhyu7bs/5o7VdWX0Ou7/6vOq8l7apK6Ol0aTeeknf4rejee9qzNTEH7teeAZrktTzLxXX7X7u2O+40Y+A5nlPGc7l1V8bRJ9vmr7vT2k+B8ZGqxWm73s4bD/xlEVjqYRsCfval75s9QRfN3Zuecu9gyxM2dGzLGbLwvnr/hk/nvgwdm55Kx03dk3GiUwa5+risjjTYzGRJOkPHdsslGwDk8al3565ujqpYsbH3TScf0bn/fS7NC5+Y6CAARiAARiAARiAARiAARiAARiAARhYCQwsK+HaG4VyHmHdGKLKGq8bY10uDm88LTPi5Z6ru9Zt2Xxd9WLorMvPsO5LqJZgLQFKAraE7CZ5sfqra5M6A2w/QkVd3FaOKgbNM61qyXOLJ3f0XMhzSL+b/InrXHwyvM9++FGYuvXOsOOsi4KM8l6Ekyf2zJvv5J+1thtEHO24fN3VGaNVHt9f1T7ZMjov4lxfGrRwPTvfCv981+uR8T+//sWw88Bsab7K8qvrvbBqSxOrDSfO/2HcAzb1oPcMqV915MF5GfcrXIvxg8+/3IjPI7ungjzFO/JifH3ySXjyoz3FRIBrXxkrDZd7vpd6VDyeLXkCzn60rVlZEq/Myvp2ZfTs+3Ypu54ra6Mxaoj9Nc1zL23TqIzJJBhfnz4PvaTvn9e5XwbZp2PLTee+ddI4YjwDGDf6EdA871VjaS7vKrfGnH76fNP0fX9K8zlINlRObbMw/dCjYeclV4TtJ63veDduO35t2Lv5vsbiteUt9w7K1am/5scAMevvlZ37ZzyXufCWt7LvK1/ndXHl4tc1TZrROCpOJq+8oai3YuLHmtPD4d982Khsis+YU3x1deLznzLj89s0nH9G5/30uzQufjf7PwH1RD3BAAzAAAzAAAzAAAzAAAzAAAzAwGgzsKyEa7+/b265vm4MUWVgdmOsy8XhjadlRrzcc3XXui2bN6D1Yuisy8+w7mtpcInWWipcS4Y3zYfVX+Ves050KxML+hEqelmGNN331NJvYmzN1Y1fKjzXh3LPdHVtfj4cevf9sPPiywtP7J0/vKL58uES4vqIw/ffOmO0yuX7a5VB2gzzub7UtE2MwTpv/V6Wws+1keWrLj171u9pumvj1aE1m/dK9h5uKpM9b0erq17Hv2JyxndOicK5xdvrUZNb/vf9b8dx4/NXPhe27zu0KM9VcXdbj0VcbjzZUbEvahHeidD+mh/LNYb4e/58kEuFd5Xfo9hffXl13kvbDGIctnz0kr49a8fcUsdHJneH8dPOiSKdJpNY2KrjIMaNfgS0pmNprgyD6PM+/aq94DuWwB7AUuHpOzpXPrumdt1z292FJ/bY2jPC4Q9+26h9bVzNvYMs/rJjt+9FxdNRTxWTuvxS4WXjRscYlnlnlOU7vW4Tq/Qdp/eQX2q/6XL6Fqe9j5t8S7FU+Gj/R9balCPtBAMwAAMwAAMwAAMwAAMwAAMwAAMrh4FlJVzLQCgjk/6mM0sCdmOIKoPYG/hyokzZc3bdG097FW4sLn/stmzeUNiLodOnPSrnEpwkPEm4lhDV1Nta+bf6q/JU9sbJsj06+xEqzDOobj/UqnB+8sbUzbc3Mnh3tJ8T0ySMyJDecb9EPOs2jERPeUWpr/baD3qJw/dftVVdvn1/7VW4Lpb0PW5NkPd1WZrmQVklJPcrsvq0u2XVs1Ulxvjy5sbIwgO9R+G5Q4DNjPO+jE3O+xX0uq1HnycTSdNloH2YunM/llcJcsX7UUvpvri14NBPSCgb15SHpuHK8ns0+muadi9tUzW++vibhOslfZ+GnWspcL0Xtp94aph57c24NLj/beHKjoMaN4YlXA+iz/uxvGq1Bz9+qY19nTZpc4VvGs7H7c/3P/F0bO8moqk9d7SF66bjQZNwfgzLvTOsjHVHLaWvsVTe6vsefyoure9/1z3v79s3YZM2aCLOK27PcdX3hM+Hzvvpd2lc/F45/0GnLWlLGIABGIABGIABGIABGIABGICB1czAshGu4zKB514chbAyEaAbQ1RZo3vhqxcDmzee9irY5fLWbdm8oXClCNda4vd3z90Sl/zV0r+5eiq75usvN+lBz/m2LxOF+xEqfPyT191ULHXp8xy979p7DI+tOyN6Ffn7frnMXoVnGXxl+I3G30e3dFWPPi9151bn/fSDbuPw3sBVIrLl3ffXKkNzlWjgvSMnLvpR9AKz+O3oJ0VUCddvTx4Mf7hxYSn8tY+/31fbdMuq57NUuG61gtiVsV9/ah8rox0lvEmA0/0yzi1s7ugZlwefltvNhWtyTYKethTQZBdtMaCtBpo858N0W4/+WV8XU7fcke3zPnzu3I/lpX1e7dKeKLJo3PD3kn2UfXpe0Csb/3z43PlS99c0zQPPvbgwliVifRrO//acl/FZNw5bfP2wYXHo6MW/qZt/WrRl2Xjin9X5oMaNfgS0pmNpmvdYfrcMdK993qdf9o2otIzR7ZmJNYNkI1dOu+bTEUN2veqoPqkxdezUs7qecOYnJaVifWmaAxw3/BiWe2eU5iGZSOcFZK0Ys+f2zbFOSsfF5HmfjnGgOm3SBubtbZNLfFx2rm9LxRfffRVe6hbejv30O4uDI8YMGIABGIABGIABGIABGIABGIABGICBlcTAshCutRzg7k0/WTBQH7cm7L7hlqwA0K0hKteQ3qDYi4HNG0/7EezSvHVbNm8oXAnC9dTMXPjLG16KAtQxd7wWDh8p3882rTv99vUnw+/c9vEOY7H3FqwyTPYjVPhlLWVYn3njrY48KJ/7n3ym2Ce6bOnL6QceKfrC5NWbskKp4lIZZ3/78aI0tB+wlkKXcVWMHnrn3UVhrA4lGu79+QOLxMO5HRPh0Otvlu4rrLLG5cKVxoZzozBjcdpxEHFYXHb0AnFcorxkuWsL7/trr8K19vnWmKT61B7fakOL347RG1aTBeI+ruvjJAm7548SqyWySryWGOXvdXveLasS4NU3lMeypcI9nwon/tJ8+baP9fHE09nxWvWm/c8lVKdxFIwfvzbsvvHW0mXLtaz8wZd/HfY//eyiOBSnhGoJ1qpTCdjdrNJgeeq2Hu05HTvq4rvrw4FnX8jmM4Y9cDDuh6s9430cfixXne+58+eL6nPm9beCJkTEtrvsmiDh1cdhHr3x/tWbFtWn2mDi/EsX+Gx7/frndT4K/TXNUy/v60GNw8pLP2ykZfHCmERVtVXZJKv02UGNG/0IaE3H0jTv9rvfPu/TV91pIofe6xa/jnon2hin/ZLTsWcQbEhcPfjCy2H+QPn4XZS1iwkXtqJCFNxf/nVHuXwZc+d+DPH7Q+fC+muDGDcUn0+/l+9qnyebeKd3i415ZRNQ/HPpuf8mVD9O76e//SSkLFtj42Fs/dmx30b+EK5r6zStY35jYIEBGIABGIABGIABGIABGIABGIABGDAGRk64lheFjFz607KAWmpV4poMQfqTcT01NlphvCFq3yNPFPFYfOkxevK1Wh3GFW8I17KsEmrq/rQXoOXBG0+1D588XdJ00996xp4vO/qyNTGyKQ2rNxloZz/aVpsPGVzL0h/29XvenQy/d96W+KfzbvNT1J/EwxPWReO19tVUPamN/J7Mk9fcuEj4sfT6FSq0hK8MrmJ57KTTolAlfubGxjv3vvzehnDo7bygHMWwH15Z9Al5G8mYq3hUHgniWpZ6+4mnlHoSeQFS4RRe/U3PKy8ykk9ccGkUyHMTMKyfjK09Pey+6bYws/XVgi8Zu+U1Z322bI/WQcRh7eKPJgDJo1yip8qjcukv7fO+v/YsXH/ySexfYyefGcus+tQ+pkpXf1O33RXb3ASTMo/rfpbC9+W3865ZdQK86k59wsYvsbHrqk0LEybafUjtW7ZP+uHffBjk+RsZUFw/vCJOdIh8TeyMXE5csDGMy3tw1+L+7IVUxTF+5vlh/5ZfdjAu7sSf7qt/W7n98cLnPoqi9R9c8sugJcP9vabnXddj4uWn/hiXs9U77Pi1YfLy6xbVhSYKmBCjfuHzpvqxsVxjV4zjmhvjpBT1+emHHo1jiepB6eTGDS+gp20rT2vfX8vGv1Hor75edO49ldWv5E1q46DqTZN0NLkhfW4Q47Di7JcNny+r39hn1JaZFTd8eDsf5LgxTOG63z7vx/LYT05Y1zGG6X1fjMHfPjkceOa5RVyoTvtlw/Kh/qx+Hcet9juoYxw9bk3IiefWrulRq4nomzL281PP6njnivWq7zfvqax86Z3k34uatJSK/Ep/EOOG4vFjWNlYnZa37Lf6t94b1k9ynvOLnm214rs/jgntbwGtgGFxpP9fyH2TazKQxsb4TPJ+LNhy78aq74k0f/30uzQufvMffBiAARiAARiAARiAARiAARiAARiAgZXAwMgJ12ZIWnSUwf/KGyq9WApxsi1yL4ojuZ7zRE6Nx3Vx6L6M1waDGS2bPGdhmhjyfNl8epZuevSGQkun7tgk3hTZJckAACAASURBVDSdo/H7wOyR8Hc/eSUKUDrqd7fpWv3J8Ou999M6qZoYoTT7FiparehFZ+J1mr5+S4Cp8sxUPmTk3/WjaxaExIRrH2dVm2qZXYnnPnzuXMb+dC/sRv2kps8OIo4cB6kA4suU9nnfX6sMzbqneNLnffpqM/MA82nqfMfZPwjTDz8W4ygTrgchsnbk55nnK9PzYe1cQp/KmOa/+N2eDCDxNZbr+xcGebnb8/4oT34TiornE1ZzkyIsjqaMK+7csvCDEvT67vP/d7nyJnWhcqg/arKA1YGOfizfdfWmYrWEtE41pmhCin/Wn0vw8QJ1+rx+x4ljGQ94xTMK/dWXx879JJy0TKV8DWgcHgQbVg7v7RvbIuM5b2H9cZDjRj8CWtOx1Oc9Pe+nz/v0tZe7lllPeYi/j18b9t5976JVC4q89MmGz0c2/fYYqAlnmuBTpJtMeMldr2K96l2vuDom0CTjcNk7Sc/1O24oDj+GNfnezZW9uJZsV9FE/G/aJtZeZXmM3xYVXE3dcnvY0d7SqOp7oihLu8376XdpXPzGOAEDMAADMAADMAADMAADMAADMAADMLASGBhp4VqGeC29J2PQ3PhErYHPxEkzPtUdcyJUI+N8YvTzBsNuDWTKY5mRzAPmy+bT82H8uTcU1tWD3W8Sr0/jaJ0/+sFU3Nda+1tverVzie+mebD6k5AhQ+zMK69Fbyd5H+pPHjzT9z5Yuuy2paM6Un1VGXotbNXx8Ae/jRMxxtZsKIzrY2vPiB7CaruqZ4t7Wmr59beigO3j2X7S+nht5tU3st6GxfMyKO/bH/Zuvi+Mn35e4Qmu+pAnq4RxeU9nPbnm56PRXQKADMdK0zjSuUQDLeGc83Ys0h9EHCXGfpUreuR+77P6Vf7SPu/7a5WhuYlwrXJpOWV5JsvrOnJy0vq4jLjyY+zkxMmdB2bDn1//Ypyc8c93vR5m5ztXgijqrKS8ufuWXresSkBTX4hebeof7fFOTOx77MnYprZca9VessqT4tIzkZF2nVh/azSulzF+4ilh/IzzowAVl/1PVs5Q2te+MhY0Zvz+hU+FJz/a06xPZeq313pM2yRbFxKr12yI/UWemRJG0uf8WK5xLGVbrEmoayKCxTw88kRHf9d7dsc5P1iYLJPxTi7yMwL9tciLbycx8sprsQ6t3xmzpcJ1+/l+x+FBsWHlksd4zPvxa+MqGna97DjocaMfAa3pWFpWluJ6j30+Tb8Yx2wljDbnYkXbFBTpeZbceT9saKKXVi3RRJC4KkR7HFVf07tWS8BXLSVemrc26xpP47eL+xYVi6XPGe+/+TC+1/37Or6nvlu+fYXi7GvcGLRw3faKj171x60JZSu6+LrwbNjYUHWs+iYvuJLXd/v7Ue0hruS1rjZX3FXfEz5vOu+n36Vx8RvjBAzAAAzAAAzAAAzAAAzAAAzAAAzAwEpgYCSE65VQkZRhaQYECXgS8rRHrYQ9Gep7qWsvXDcWhp0Ru5c0eWZpmFiu9VrFoCZkmMiqiRrLtYyjku+pmbnwlze8FMeNY+54LRw+sni56FHJa10+UuG6Ljz3l++4oy0bJHpp0ogmWNW15aDHjeUsoHlxshvRsK6OuT96/ckmeHQ7KWtU23I597tRrVPyNXr9ljahTWAABmAABmAABmAABmAABmAABrphAOEacbLWON4NUIMOq31ptT+thGstidpr/FWiYa9x8hyDbVMGtD/mrsuuiaKUlqOfPzhTsDyIpfCb5mO1hLvn3cnwe+dtiX86X87lRrheHeOMvHS1fHT01rzuplqv4KUYN7yA9vjjW8Lu3VPxb2bms/FqVPsSwvXq6CfyeLZl4HXU71Flsipfs7OzRf/auvXX4W+//o3whf/238Pzz7+4LMtTVVburY6+STvTzjAAAzAAAzAAAzAAAzAAAzAAA4NkAOEa4XqkjWTPbZ8Ot7yxI9z+1s6w62Bv3tbqMAjXDJyDHDgXxTU/v7DXc8kStFrSXd5hEqXEon9++77D4dY3JyLnr07s77jnw3HejOEjrVaQ17rGjZ/9x64ggW851x3CdbN2X85trLxr+WiND9tPPDXMvPZmLbNLMW544Voimv3dedfm2vwMu/4RrldHP9H2JXGZ8IbL6Q+by7L0JVBb//JHhOvVwXEZF1yn/WEABmAABmAABmAABmAABmAABmBggQGEa4TrkTdID6KzIlwz6A+Co6o4tDzt+Mlnhj23bw6H3/sgSHCcGxsP0/c9HLSvdVwC+LRzGi0BXJUO91YXywjXK7O9tR+uvKzVvvseeaKY2LLz4suH5kWKcL0yWVvW7wxNCts9FfuJRGvtWx/fpRvOjdeXa9kQrulry5Vd8g27MAADMAADMAADMAADMAADMAADR4MBhGuEa4RrGFgVDCz1gCrhWgb1sr+xtaeHmTffoa7pb10xgHC9Mj8GZ956pxCrbcwY+96GMPPGW13xsdTj2nKJH4/rldlP/Phn/WT7t08O+598hn7CuxQGYAAGYAAGYAAGYAAGYAAGYAAGYAAGVigDCNcrtGGXi7H5aOUTj+uVadQ+Wvw0SefQO++GyRtuCWPrzw4yrEcj+/Frw/ipZ4WpW+8MR/axDHiTeiRMZ1/1wk26zDx11VlXy6k+vHCt8WLnDy4Lsx9+xMd2j99kCNfLty9U9Vs//m07fm3YcfZFYebVN+gnPfaTqrrm3srsQ7Qr7QoDMAADMAADMAADMAADMAADMLAcGUC4xviDARAGYAAGYAAGYAAGYAAGYAAGYAAGYAAGYAAGYAAGYAAGYAAGYAAGYAAGhsoAwjUADhXA5TjbgzwzSwkGYAAGYAAGYAAGYAAGYAAGYAAGYAAGYAAGYAAGYAAGYAAGYAAGBssAwjXCNcI1DMAADMAADMAADMAADMAADMAADMAADMAADMAADMAADMAADMAADMAADAyVAYRrABwqgMxEGexMFOqT+oQBGIABGIABGIABGIABGIABGIABGIABGIABGIABGIABGIABGFiODCBcI1wjXMMADMAADMAADMAADMAADMAADMAADMAADMAADMAADMAADMAADMAADMDAUBlAuAbAoQK4HGd7kGdmKcEADMAADMAADMAADMAADMAADMAADMAADMAADMAADMAADMAADMDAYBlAuEa4RriGARiAARiAARiAARiAARiAARiAARiAARiAARiAARiAARiAARiAARiAgaEygHANgEMFkJkog52JQn1SnzAAAzAAAzAAAzAAAzAAAzAAAzAAAzAAAzAAAzAAAzAAAzAAA8uRAYRrhGuEaxiAARiAARiAARiAARiAARiAARiAARiAARiAARiAARiAARiAARiAARgYKgPLTrg+Mrk77LrsmjDz+lvhk1ar78qbPzjTOJ7D730QJq+5McztmOg73dwsh/kDB8Lk1ZvCvkeeCPOHDg08jX2PbgmHf/PhonhnXn8zTFywMRx69/3GdZHLf5NrSmPnDy4LB559IXwyP78oL03iGGaY6QceCQd+9XxX9TR9/yNh9423hrnxwXOjeLvNT139HXjupbB700/CkV2Tle2jvtOanasMU5fWIO8ffP7lMHntj2vz3W+aM2+8FXbfdFtt2VV/R/btL62f+T17w8yb71T2g+l7HwzTDz1aGabf8ozC8xrXNfYdjTHIyht5uWpTmN02VtpGFrbpcfqBX4TJ62+ubPe6uOJ74Jobw/5fPruo3cXU7G8/rhx/jkztCXMTOxuXaebVN8LhD35bGf7Qf7wXx22FtXFb/X/PbXcf1Tarq7ulvD+qvCxlmbuJW9ztuvSqsP/pZ2vHxm7iLQur9CavvCH7TVP2TD/X+T5jdnI//BytZ1tzc/E7aO/d9xbvIb0z4tg9gP8z1ZVD6eqbZSn+D1OXNvfpozAAAzAAAzAAAzAAAzAAAzAAAzCwchhYfsL11J4wvuHcsO34tWHqtrsqje1NQN3/1K+iEN5UjJb4u/3EU4OeaxJ/N2FkGJ0475Kw7bg1YWztGUFiQTfPV4U9snc67Pj+hWH7t08O+x5/6rN4W60wed1N8fren93fYXCWKCkRc9Di5P4nn4np7bzoR0Flrsr3Ut9TO07d/NPGRjaJjTvOvigazOcPHGyU9z133RPLq3IPsjzWpuoLMuDPz8wMJP4DzzwfGVQ/mxsbL43z0DvvhvEzzw8SV5fSSHlkel/Y+cMrQl39xXwfvzZOEljE7Px8mPrJnWHfY08Wwpu1RevIkdgndl29KTT5Gz/17Dj+aNLAonTcTCzVXayfex5clGZMu9UKMvLuOOcHYW774npWucWa2nfPHT8LyqfleRSO6rtNhOaDL7wcZt54uzLvEmTHT/l+GFt7+kKcrh6trGLsyM5dRTyqn5nX3owi7uxH28Lc2I7iniY1zfz69VDVR43zXZdfuyicDP25NlF80w8/FpS25cuOcWxoj7GarGLXuz3ae2D7d9cHiaX++Zm33gljJ50WdpxzcZbVyas2hbF1Z8R6jHWTqUcfn+pJ5Y9jyA23FEJHR5hPPomTQdQ+GmeMecvn2JoNA31XpWn3+nu18NJr/XQ8Nz8f9t7zQJw8UtVnOp5J2FJ/2/6dUyJ7B1/+dQe3uefi+6qPyWvqC+ojSrPu3ZBLv9trxjvfZ6P7HyCJs1WTxeraPE6guu6mOEHVxrmyZ+IkogFNetL7a/KK6wY2KVZxidMJfWMfnInvq4kLLo2Cdq/9u6we0uv63lXa+mYb1Ddpmga/R7cP0ja0DQzAAAzAAAzAAAzAAAzAAAzAwKAYGDnh+uDzL1WKIWY8lFEkZ1iSR+ye2zdn72UrrdUKe+78eTSARi/gxBibPiPD1vhp50Tvs9ahw7XG2fT5qt9WNhl9ph9+fKBxm1FZIrX3VD/8/gfR0CxRYtdVncJdIZrd+fO88FZTV2VljR4hV28KY2tO79tbSt5dTcTGXBgTeVTfUYRsKAxK7N52wrowdWuziRMKr/qVobOsTnq5bm2649yLs0JaL3HqGQl62797aq3YqLDyPh773oYwdupZpYJjLh8S1bR6Qa5d0mtxospxa2rF/4V8rw8SNHJpyuN9bP3Z0SswFR4lcmnySm5Msbh0T2OL+r/6p7xaq8LrObW9JouorLmwUZw+9+KYr3SSgCaYSJSJY8FR8JSycjY9RrH51LOicTxtM/s9efl1C+KSeJLIXDJmmHAtg3tVGHGmFRsUv41P0/c9HNtcgq08PmPal161UO9XXBdas7PZOKt4iQKxj689qSGmedyaONkprtbhyqP2kgA8fsb5YRDCtSYx6Z3g68PEOokD/rqd2ztEK2g0EXDktar+JUarxD9rH59ukVYmn5afYR6V55XIiyYs7fnp3Y3GTuuHdUcJXGJX78L4Ptm1O8tXaXu2J8DpvagxrzRcu79o5Re1jb69zIO/7pn0vlY3iN9K9z5Um176bC+/jXe+z0b3P2BaiUljdG5lIY11/ttXDMTJT1tfDVM33x7f69YHdNy7+b5KruI74qTTivdRXR+rum/vMn2f6/u4Fz79M5roJk71jrPrqhtN9NAE1m5W5LDnmx71jhg/+cwlTaNpXgg3un2VtqFtYAAGYAAGYAAGYAAGYAAGYAAG6hgYOeFahiR5BkiYznlBm/EwJ3Ac2T214I1dIiyUVYaJ0RPnXxq9E8rC2XUto7z35w8UBiG7rrzLOCUxz651c5zffyB60sngJO/nbp6tC6vla2W08qKeCcjKcyqqWV1KpJNA2tS4rPibeN/OfvhR9NQtM9IpPxKTtfRzmjdfVt1T+/U6iUAc7Tj7B0FigI+36jyKjWdfFEWysvz752U8HLhw3aVQEPPTapWKeGl+U1b8/fRcBl4ZeiUkpPdKf8/PBzGWttv0vQ9Fw2rO8OzjSp/TvSoh0p5V/Opfu2+4ZZER28JI6NSkhKlbbi+Wdz+ya3fs29GTsAsRWX1BopBWaSgTbg8881ysv0Wi4IUbR1a0Vl3lxEyrQzvaeC2hrRANMhxaXLlx3eKyMGaMj/2qbSDXuKM+ZuNb/H3ymR2TL8SUX+q6ipc0PuVBzEk0Vzqa8GP50tG8rTVeaulxTVTo+T3QXnmjH+G6qh59vlVO9XVtv1E1llndL2L0vEviKiFqZx/vKJxbnlciL+JN42fRp9wEirTuNRlQgnL0vuxhCxKt9KAJgVXCWzFB5cRTowd/Zdj2qgAah/Xe6EW8FquapCKBrOlS/7l3RlpXVb/5PvvsP1RNv8+q6nNJ7rW/izSZLh1/tVpEXKnismviKieaxLbzkivi1g5xG533PojvtKZjmY2dfkzstUzxXTbAyY3KUypca6yQMK7rEup7zWvdc0p74N+7FeNbXX64/1m/pS6oCxiAARiAARiAARiAARiAARiAgeXEwMgJ16o8eR7KqKRlY9MlJ00IyRnmZVyVIVQeQznRu6phJFRFr8i5uTD70cfRwFNlfM3dM2885TvuXdulscUM7TIsSWiuym8390yYT8UJCWbyvogG8CSvMj7J0C2Rtpu01C4qv465OpKXc9k9H97qUu1Z5q3aTb7KwiovOYGoLLxd1/LYB1/c2lE3MozrWirclxklVbfy0qwS5i299ChjvYz2jcWI9rLU8nKrE4XLBD2JBZpQkRp2JaKo7VKPYRlK9z/x9OLrCWtWNvOI3n7iKXEJ7ap6mbzqhsiF+ow9X5Zvu6+j6k2euRIgK4WM+fkoqEjw0cSGfvaZVl+qmggg76ddG6/uqCcZ0vfceU+HMKV2U761rKgv07DObbxS+cryYOO1D6NrKocmpphXsMWl/lgWl4VROyuM71ep0Jz+tvAaW3f/+LY4EaeKl9zzh9/7IK4SofdMmkddk3e8xlTd02Sf8TMv6GjT9Jmy31ZnuXGpTiwxD2rtF14Wv7+uiRx+UoXGJE0ySMd9q/u0HZVHy6cmI2lriSZiqs/DUp1bnlc6L1X1pzFUY4s86tP3VdVz6T2NlSkTPkxcbeCEdVHg9teX6tzG8XQFmbL0tJqOtl9p4g1eFofxxPdZe7WL9sSDpfw+K2uLquu2Ek06Bvb6rVeWVt1YXPZc7rp/l+Xud3tNnItTG/vseasbjftxnO5jqX793yxOVkwm8ukdgXCNIcSY4wgLMAADMAADMAADMAADMAADMAADvTIwksK1CmPL2slz4tDb7xZGeDPqpwKHxJyxtpBXZWBtWlHaSzWNJwoXa08Pe267e5E42TTeqnBmGJUAsutH11QLayXiXy5+W3LYG64lMmpv3dQrRc/bfnu+/BLX4lKyNYYutUuV0coMZxKuRmH/u76Mma1WOPCr54slso1NlV8CvQnxWrZX4pD2krVrOpo4r3Mv0jZZClZxyjAp0cjHWXYugVuTAPRMnXjtBT2JUbHdW6249KPyLM+lsnQ6rreXa67bKzsy22pFL2jVnfbO1rW4xHNiFDW+tRSmBO59jzxRCGU+3xYuPWpSgQzavi+I8zhBJmHbRB+J1z684lQ8Mtqa8Jqm439rT8nDH/w25nP2422xnB31lOytHZewP/WsOAZYOL+svSb1LJok0MV44PPWz7mNV17MVNtpAoLFa33Ch7FrKoeJ8BZXOq5bPDpaGDPG62hjTSo0p7/1vNpQ+zHrnn5X8ZJ7XmXQRB9N1PD5sndPhxd/m2et4uHHUf9c2bnVjwnCauupm38a41G+NAnC16ePx+qo7L4P61cDsLFJHuNxXDn/0tg2WnUgMnj5tXEMkxhfMHnlDXGSUpyodPl1cUJI3ZLjPv2lPre6WOm8VNWjVnnQu2fnxZcvyTeL0hbfei/k+kZV3sruNfHwLt5/F2wseDQu06N5g4trvTN6Fa+NJ77PRvs/XDZ5J93Kpa9vvcz7tW4sLuM7d92/y3L37drBF15e9P6xe/6o+MR7unKTvmmUb32TaMKBJrWk7yd9l+v7Ku1H/nfRp7Sk+t33Ft9gyoPePfZe9nnifLT7De1D+8AADMAADMAADMAADMAADMAADIwaAyMrXJcta2dGfS9wyBgjMa0XD+HGDWLL7B2/tsNTsPHzGcNX+uyh/3gvjJ10Wtwjdddl14a4J1+D59J4/G8TJ7zhuhDk5J1+zsWLDFTyWFd4b6iKIuvxa8PULXd0iDY+LZ1LFKwyWsmoVeV9msa31L+bGDPlkb77pp921EesGxNmtXTwbz6MnsgSmzybyn/OKBmXOr3smtje2jdZS1H7smr/XLWTv2bn1gcGJRQof9GI2RZQoyhwwrroFSvvZIlR8tDRXsImplleqo6aMCFRK3phJqJw+pzEcXmQ+5UKJDBoWX4ZWdPw4ijNi8rRC1smSEhg98zrXEKdJs9MXnl9xz2bCBC3F9jf3TLJuUkxKp8YUn3J2zot7yj+tnrzIqnONUFCXs0SoIxVH8au+X5icflraZktjNpZ93y/SoXm9LfCp9eqeEnDRnHu3IsXiV42luYEaj2j61UrgEgkkOHfc6d3mTgwQVjjqUQILY188KVXKoXryNCa0xst228e5FW8SaSPy1Lvmozjeq4d036Yttuwfq9EXrqpS2OzX2/rujQ1TvcjCOfijx7eWgo9894Qj3r3+W+aXByDvsb32fL5D5yWdU/ZafKt1w0zNtb6MbGb531Y/y7z19PzOGHv2ycv+j737w+dq29owp2faOTD6LvfJjLqvZKK15qQp/HT6tDe2U3KqjBV/wdIy8Tv5dOvaCvaCgZgAAZgAAZgAAZgAAZgAAZg4GgyMLrCdVtokJAbl+ltC7hmQPECh0Qv7YmdGl8GWZHRU/i7p0bR2guKEiD3P/1sI8/LuvzMvPF22P7dU6NAob2dZSite6buvnlcjZ95/sIS0VoyevN9Yeq2u6KgkhqiJGKoztO0ozGqvZ9sVZpVRisT0dMlyxfF12pFT1p5MPq6XhQueuXONdq3OfesrjU1ZoqtlC/tHRpF3fsejh4nOTaVRs4oqXbpdSnhKBR8++QOgVNL4x96/c3C0FhW3ux17TetPb7b3s05QU+e+RJw5Zlp4eb3Tpd68UVhvuF+71qaP3r/v7ngCVvksb28uQRlGYmL622vnlQwy+XbP1N2bgJX2hcUXnz4scbikLApkVxp2rVuj/Kk9VsaaIzRnpviyMcl7jQG1vUF/8zROM/VWzFOjO2IZbA+4evWrvl6tbj8tbQMFsbqXEczkKdCc/pbcaXXqnhJw6q/ann6jjYwPk87p9QDXm0ct7046bTYXzueb7/TJNL5Nrf6Sfm2MqQe19MP/iLIA07ChCYY+aW/0zr0v+WRmEvDh7Fzq/tcOzaNw+I6WkfL80rjpWn9aYUBvZ/EQ5yckBGBm8ZVFq4XEVkTkaYffmzR+7QsjfS6yqLvJI2X/t7B51+OY3Vc3aLPCX8+Xjvn+6z9n7Muvs+s7kbhqHdLk7FKK2hoixP7zinLu40vfkzUWK5+p2/dsudmXn1j0feMf5eVPafrSqvJ5DxbSl9Cd1V8Te/ZO8mXtexZhbH3sg+jOlHf1Xejv845Rg8YgAEYgAEYgAEYgAEYgAEYgAEYgIEcAyMtXMtwJO9Em/WvApgBxQSOuKz19Tf3bARVnBIT9j32ZFwKOVdJEo5k8Mrt5Re91r63IYoTEjtyzze9JuOVPOu0v7UMTtHY3IcB1rx6FacMSYff/yAceO7FuK+yPCpUptQQpd9aSlr7Yvt8lxmjfBidWzgJndrD1nt5SPSUEV3pdlxPlkrWMuKFN0iyjHaanuo8eiZeeUNp+6XP+N9NjZn+GZ3LCCevFu/1nLJpz+SMkpo4kFum3Z4pO5pQkBpgtZS7PJatncueb3Jd+U2No1q6f+rm24OWulYcsawXbIwe9qoLeYhr2XTzjhY/Tcp36N33w8SFGxcZci2f6pvRA/V7GzqW6xZnaR3k8m3x+KNEcOXVDNM5A7SFFx821tg1HcVdU+Fa3vRTP7lz0RgV8+u8p+TpnusbtnxzHH/m8l74Pm9H6zxXb9b/dU/5sD6h60W+Wq04AcLXq8XlrxXh22OghVG96Z6OZiBfJDS/9U6858fkNEwVL2lYtZ+PS+lrwpREaVvaPs2v+NJ4u3/L00GTLzQOa6ySh7X68aLw7XJanaV8K7zykArXuj63fTyORRo3c++pNC31T01mSpfA11K0OdHG6t63Y1U+0/SG8dvyvNJ5ydWtvlnk6a9lrfXOFRdxP9o+vic60pmfj99N2ttdE930ftDkmqr3ut2Lq7doBYGad3tHeu18axsC9Tmt7KLvGx9G7RxXJrj82uI95O/3e27x833W/Pus3zof5PN6t9i3orGYHostObQE9ub7im+EXD5sfMmNiXovKa6y+NUv40o0ba7Flr3LcmnZNaWVfpvZPX+0vFW9T334unMb631Z9Uyc0KUlx903vCZkasyx7SfsnvV7eXsPYjWpujxzH6MHDMAADMAADMAADMAADMAADMAADCxvBkZbuM4YWc2AYgYZLUervxREGW4lnMqgn95L95ktlv0975JFntNROLvmxkWe1jFOWz78hHVR+DYhLE2v6W8ZhWR4lYFZXrUS7PqJUx5JEqElfKUiiNVjaohSvcbljw/OdNSbwmnZaHlyVJVH4cwAly6JrOWmlZdUFK+Kr+6eCTm7b7qtp7pSeWVIi0tLZngrS9888P3kAqtTY9OebWqUtPBVRxlTZfRMBSczVA7Cw0b5rTOOKh8SQyTIyYNIeZYgLCFf/a5KmFPYuMfitT+OHoHpsvQydIpBcTR+xvlRYFNafr97cZYyncu3xgYtWW7GUx2jEHz82jg5RHkp6s6Lq20W1JZpe+oZ405p6rf9KT2JOYvSO25NXBXC7+suD764PHrNhBfrU5p4YumMwjFXb5ZX3VMerU/ous9zWq8WV66u7TkLY3Wuo401ag+d66jw6e/ctRwvlpZ/XpN8JDb798yBZ1+IW1NoHFg0QceM+O2tBDQGK5z2E9Xys2zMBwAAIABJREFUrVpNo6p/WJ2lfFsZcsK17s3+9uOFcaFkX3grm44at8a1j7oTV2zfUnnpxn3tHddW974dF+Wz1YrbCez9+QM9jcU+f4M4tzyvdF4W1VV7JQCxZl71xlIcDx95omOlh0XPu3YvuyfhSWO9WNlz589je+tbKXpTVvBnK3dIQIz7tidbZJSlp+sSqjUpQ/0p912ndtb3k7V3VVy93BP7fJ999q7rpQ6PxjNlE1H1brF+UJYPG9PEWLrKS/qMjS9+TFSY9N3mn7P4/co1ui9m7V3mw6fnSqvu20zP6HtW37W5b3lNNNS3eDeez5bvtKz6/0lcrcet5qAwuXqO/fOEdUErFaXl4vfo9yvaiDaCARiAARiAARiAARiAARiAARg42gyMlHCtJYMnr7upQ/TxApDObf/P8VPPrgxns/tlIJVXZ1qxXlSVQUVLT8allp3RViKtliCPAvjEzihwyVg1s/XVaNifvvfBaERSnmQsS9Po9re8iGRsliippbq1fHKvIm/0CP7hldF7LmewM0OU3wOvqm6jF8V31xfCUFnZZLTKGeCiB9jZF0VDuj2rdjn48q87POrtXtOjBCYZ8nw5UmaqfoujXH6r0ldbS4SSh6zqUSKQREir01R8a2qUrEpT97S6wNjJZ8b9llNvszIjqp5TfiWmpvtol6W30B/K29rEh9zeiPL8joLGiacsiH0V/UKsmPitvaw1WUP51PMdS9W3WkHLxks0MMNpzjhalm/1BS3JbX00Mnrm+YV4aHWXYyjykRlrNC6oryrNtB7j/qyTuzvT23DuIrHIi6NpHP53rqz+/rDOrd6sTZSPWLenfH9hf8wREK61J/T0/Y9Eb/e0vst4UTnSsBqTNVljoS/9IkicFVcK698lVic5LrRyiMY847Cs3Wwc6TD+z89HsW7m9TfjeOfrPBePwqkv5u4d2T0Vt6PQMua6r7hSMUTC5NQtt3/2jm2vluH7iL0vCi/GtlAft0+496Ghi9dpW6hNbKxP29d+L0de0jaW97PaU+89TZAQR54lCVaapDB9z4M9v3tNGJNXt97taR5yvyUEylt6z213F30nF67smiZTyJMzrgjgvtMsvNp3KYVrvs9G8z9oandNaLDvPJuIqv8DaKwzPnLfwXbPjra1joRdu1Z2tPElHYubCNe9fiPmxupc/uJqS5deFScWpt7NxSpRmlD1xtu15VT89k5Ky5pLO9bz+ZfGVXj8fbVT+p7x9zkfzf5Fu9AuMAADMAADMAADMAADMAADMAADw2JgpIRrVYIXAfqpFDNiSlyu81ouM6hIRJOwJmPo9hNPid6fMo5pSUwtNSxPURliTQDoJ79mGDKvZnkx7Dj7Bz17J0SP7Wt/HEWSnMHOPKZURsu3DMLyAM15dkqokZeIjHUWPnfUctLyVkkFd3lZjK09I8hoZs9ZG8mo3tT4bc/aUYKDjGFNDGr2jD+qbkzM8Nerzg8881z0/pUXpQnyKpvKqLI0MUrKiF/n0ePzILFLQpFYFCOLlqHMCEupIVci7OyHHxX17+P3574/SJyTMG8ep2JdHssyFJtw55/Vue3rq76jSR9l/U+erKlRNTJx/No4wcELfNHYqmWZ33435l/t7cUYpevznebJ/06fLTNA6xm1Zdqeum7cKU0fd+48Tc/CmFimo13LHcuez4U9mtdy9aa8+v5k45qu+7yl9Wpx5epadRyFCdtq4IKNUaTQxBFbklQTCTRG6yju7be8itVnNMlCoqTyZvVdxcuittHkiU0/iV76Whbfl8WfWzmacOGf8+dWZ+JbfUl9T2LMzCuvhZk36yfqmOd09t0kr+gHHulYxl9tkxMUJHpG4afCg9bne1TOVxsvvt5t7JWnpd5NniWdW1iN3epTEveavBPsOTvat1Guv1oYHTWGa4xXvrQlhBj295uca7KHVqERz+rb/r3gn1e7L5VwbfXI99no/WdNPMSJaYcOR7Y0dsfvsRe3FqxpzFaf0DY0+u7IMtReQSmOm+MTxbOeMX9uY33du80/Yxyl/Ubs+vemf8afl43VCqN+4rdAid/imVWSFEd8J268etEKUz4tf275Tsvqw+jcBPO0fLqnMubeM2kc/B69Pkab0CYwAAMwAAMwAAMwAAMwAAMwAAPDYGDkhOtBVUI3Rswyg4qM9hLeZBDy+2wrjxJ5JZpIxLQ8yyBme/zataZHeXfLKCrDmjw2JfZF7/PLrlm0l2NdnMq39mE0MVhGpFTkS+OQt7sMdhJJUqFR8cSlqRsIGLm0ZCSX8LIrKUtZvad5q/otI2U/wrX2oNW+mVVp+HsSc+QRbEZGTRCQkCsR2ox76WoAXmCT4d2EJcVRuj9u4lEW99Nt82Fp+3yVGVEVxupo+uHHG5Uztst3Tole5XEfXHnFt1pRfNDS3Xtu35w3/Lo8m9dfLq8+3+l5KROtVmjNzhb5lwE1Zbr0WZcvpZc+W1V34jlnhLU6VZppGdLfaXp2PxrY12woxFabaJAe5eWaltXiGOYxV28qq29z6xO67vOa1qvFlavrKH7t3BU9iBW31bmOlpbqUuc6Kp30d+5aFS+55+MYfepZHWO+L5POrRyWx/R+k99xv/ozz48e/RqT9//y2eL9o3zZeKcxR8vgp3FaGAnteid13G+1FnnCqW1WkqCw2nix9tV7WuJcFN7a3vTW/3Ljh+pJ3zf6jokTkypWx7A0dLQVNyR+5fqrDxvT17YPZ15Qu82If86fG88mxvt7/lx9Lidcx20pNOGwj1UA+D5bPv9By43dtkKAvOa14oC437/ll8W4Ko7MEzl9V3nG/LmN9Wn49N3mn7H+mPYb/y7z4dNzpaWVXmyCln0rdOzNra0a2ttB2ApOFo/GCE1WUZ+Xd7ldrztavtOyps9ZPee2rNn7s/vD2JrTu5qwmcbP7+XTD2kr2goGYAAGYAAGYAAGYAAGYAAGYKBfBhCue/AEiIbbNRs6RF4ZgeURK1GzbInWqsaSAC4PVW8YynkpV8UR78mj7t4Ho8hoYWUkyxmu7b6WoJb4OnHBpUFeGt6TVstLy2Cs5V+9SG/PpsdcWhK9tT9xaijLCUfRM+u8Sxbt4ZymY7/NqO3rze4N/Nhqhalb7oiGQ4lkMnTKC131p7TMuKc60OQDeeanS3ornBnBtcyqPIXq8hl5W3dGXJ5e5TSxzj9XZkRVGKujOjFNDEcDals0k/HRWIjtcsGljScwqNzm0WcTKHx+y85zTOTCqh5Spnt9tqru1Jb6S/PQtE71XC6vup4zsKfpVD2fC3s0r+XqLeXT+oSu+7yl9Wpx5eranrMwxnFktb0seVqX6W/FkV6r4iUNG/PQnkwUl6AtWR45zaPlXf1HE3d0tGv+qL6nveJtmVsJcFpxI+4f6iZeKF8mXKtuJcCk/Su2wclnNhYKFb5MuNZkkZmXf12MAz7P/jx6g7f3uvfXh3metsVK4iWtV4mzehele/Na/0vHSnte3GkfbH17RGG4Zs9p8SthXFtlqB9U9VelYenHSSU98KH8SZxTf7AxRNtI5LaU0QQxhdPRBD0dlU9d72cJe77PFv6zFb8Duvg+M86O5jE3dttYIM/9mJdWK0760YQKTQxqHZ4NErXHN5zbsbx4Vb4tTuPSwqbvNruuo/WHtN/4scmHT8+jF/VJp3VupSJP50OH46RX5d++KbUMuLZAkmBs8ej/FFH4vvjy2jHdntHR8p2W1YfRuX3bakJnek/P5r5d03D8xrABAzAAAzAAAzAAAzAAAzAAAzAAAzAgBhCuuxSuZbizpZJlVLWOFPdf/PbJ0fAVl+ubny/uWZiyY1xe77JrFnlBmHeE9vdNvaDL4tL1VCyVkSxruG614tKCWh48iqwyEl+1KYqz8jDX/tNaaldet7qfLv+9KA+tVjSea1ley8Pc9gVDt4TrySuv7zAoR0Oz8x4pvEa0HPb3NjQSr72Qsyg/TvAZxD21sTzid9/007D9O6eE8dPPi8sPW9zmbSIDqK7JSOqXRrdwuh49YZ5/qZaRyNsZ54XoLd1qReN9zvhXZkRVmlZHMo5aHorj/Hz0gBFjMnJKwBDfXshSuWL7p96bJfUrIV91IC/+WmaSOHJiosXn9+iWETRlOvdsUU6XTvqs1Z3fv9eEj172uE7TTNOz+zkDu93zx7LnfZhhnFu9KX+WviY7eD7LDN6pcd/iSg36Fq+OCiPRLK7+0B63La20LtPfej69VsVLGtbyYV5jEmo1DhgnxTFZzlzXNa4pn1GM1p7AThxsHTkSRTiJarov4VFG/x3nXLyIbyuDCdf6LU9Z73Vt7wwJe03fGWo/3981wSgKPO0VNtQmyv+i7Qmu3hTLbytIxMlJFeKk8iZxVWPfjrMu6mmCl7VDk+NK5CVX7rjsd1t0s0lUFs76XzpW2n0dvTjsvbV9GJ2r/SRui2nbO7uqv+oZS78uXJqWfpuoPnbSaZGZYpzR6h87JmLc/jn1Z/UhHf31fs/5PlvYfqGX77N+676X53NjtyY7jJ18ZtD2Lj5OfZ9qsqmWFpcXctn+6f4ZO7d3VsFl+xsjjpenLixrX7wXbKy88oYwtvb0uHWFfSMrPjFr7zKLP3e0sVhp+/vWz/y3t5bol5Bt14zjpt+eufjTsvowOo+TVNeevkhY1z09W1XGo/1+SPPOb4wiMAADMAADMAADMAADMAADMAADMDBaDCBcdyFcyyicE63NC6nK6FsFvuKVUU3edubhauG1vKUXFex6N0cZu1LDtZaQlYe4jFrRQ0Oe2g8/Hr2SJKKYN5UEy6ZpmfGsw0jdaoX9Tz+bNSZXCUdN05SR0gs5TZ/rNpy8ntU+8qY3A5zKpeXdbZnV1JApASguve5EU7Wv4qny2rS8aUlLhTXRWtejV1Dby9TC6Zim7e9ZHeUM+jJmyjM6imrfvzCK2GXtIiE65+nmjbPeuC2Pci/SdeTptTcX9i1uG3QtjqrJDD4+tUHKdFm+fbo6T5+tqjux3MFzuy2r6rQuPbuvOMZW2FLh6VhjY4JfOtSu+Xq1NvDXrJ7sqPqS4VtHXVN7myE81uX6s4tlSNOwCp9eq+IlDWt50H7vNh4f2blrkbezlUNx2zN1R+3bbpOHNGHI6ifl28rgxztNjNmp98aevTG9uErHSactWt3C50HjUtwzvN33NGEjeuH98IpiGwNNYNm7+b4ofqdt6uPSuZVZ3t/plho+rAR5jTP2100d+XianqdtuFJ48eU3T+syb+kqlnw8JkqrbXKTHiQiixn96R1m8Vb1V8VfFU7vt50XXx4navi86NxEa8WvSSKe+TSs/Vb7Kv+D5orvs4Xx1up51I9pv1d+NW6XfXPpu0bvEY15WklAXDYpo417+p4owrcnb5b1C+sP6djux6YiLvfdaNcUryY3pRMCLd6OdLVCyJU3xHeLPKFtKfTc/zMs/rKjxd9R1kz+dF8TAdKVQhSvti+KHu1Tez6rLxfH0X4/lJWV66NlpKA9aA8YgAEYgAEYgAEYgAEYgAEYWL0MjJxwrSX7pu95cLEnWyJwmdBVdrRlI5sYMRXGxIiiM8hj2u3prGX3JEzvveeBDuO8GXyjt9kbb2UNMkWczkjjr8WlOk9YFyQ6+Os6l4FqYRnvjYs8jNKwZb9lzDJDmYzOe3/+QDRAH/7gtwvpxeXFFwRyCeVTt94ZjXwStHNL0ZalI2OVjFZ1xi17PlvvJXVkz6RH7fOqffOappk+73+rLdPlzHVfhmsZ882gqbRMMJt+4JFo8Ize1e282DKJ0YPk0qs6luyVR4q8tb2XpM+DnUej/g+vCAeefaGDCbWlpW1hdcwaUdt1KUOu+C7rCybG26SJ0nZptRYMkm41gbq4fR47zufnF+JyfUz3S9NOuFAbGNMWb6/PVtWd6rvDGNywTi1POubyqus5A7t/zs7Lnrf7/qg92+N4cd4lYfbDjzrY8eEGcZ7WW7rigNIwg7evw9w1i8uHS/MobzmVzbZiUHtbX4jllkG/7YmWq9v0WhUvaVjlJYp38phbd0ZHn9Y4qnsKY+VQ3Gn+q36r7uy+1U/Kt+4rXx0iXnv58j13/jzuXS1RQkuSe28+i7c4qu/tnireJ+Jr0fvP9Te1SS4vFp+VWfHYtdxR4pGJ1hKJ1Ga5cIO6tpJ5UR3pHSGhTe9oG7vTuqtiKQ1rbGlVES09bPcj99fdtDAJqz32W7xiY35mJmhiSu5bTMKZPEy1ckV6X31ZPGw/8ZQO8TqK1jffXkwIs3zV8aU+txTCNd9nvQvXR/N9ZLymY7d5Guf4se93CarKq0Rh8RpX9Ui+TSx+O+bGvaJfXHNj0X8svI66r8mH+x57smOM9u8yHz49LxuLi3dvsq2JvjM1KWnfL56I6WpSqq1YksZd9dvKldah/n+ismgirOoyTni9/uZs2cvybuke7feDpctx9RpAaHvaHgZgAAZgAAZgAAZgAAZgAAZGm4GRE64FTDSCSIBwAlm3IHVjxFRYb7iXl6iMS/KkVh4kpI+fcX70/PH5kIFVxtjU8OrD1J0ffv+DhaUDN15diB/pM1EcPWHdguG4xpiWPqvfHQaj+fmOdOSxNXntj6MoL3FeYr1EEFtOMC5F++iWrCEqTUuCkjwHTbhN76e/03pP78f2rylvzni4KB4nwlTdkwieepjn9niV8c4EMzPoyZtEQkmcwOCWo4wTAW65I9arxAV5mFWJQMqf+NOS7cpPml+1paXt71XVgxn+Vd/+mbLz2nZx9dlt3GVp2vWmafs26OVZ3wZVdaf61p+lYcduyq28+vR8HGpLxWXXcsey59Ow8qpS/zNxUGNYGmaQv9N6M48uGaAtnfmDM9Fz1/bd1PWiz7h6tbhydW1xaVzx3lxixfqCzv091Wlatylb6W9LR0d7XkvHalUKbZmw/aT1sW791g2xzrWM9pU3BI2lVg7FrbF996afFBNefPxV51Y/Zcx0CNeffBLT0aQqpSUP/jqe0rTFl3//pffVJrm8WDgrs+Kxa7ljnMijpdS/fXJcMly/c+EGdW0l86J3gyYpaDsPP8EurbsqltKwikfvKz9ZykTkmI4b9y1e668SunPtmYZblKaLU/f0jpRQLC9rCyueU+btnj+qzw1auOb7bH35eJJM7vRtofOj/T6y9G3stnFQ7yUJqnPjEwVTCivW4go22hda3/rtSYoaS/2KExZvesyNexLJYzo1361pXGLX3mXpveJ3hTd3Li96ztogbkXR9ihXny7iTPpf2XXrx1O33RWFb628oJU+9K7Xe0/Pxe/ftadnJ3/qfu17pL2VxNF6P5SVleujbbSgfWgfGIABGIABGIABGIABGIABGFg9DIykcD0IALsxYiqsGe7lXSsjvZaGjsbhCy6NgnHq0RQNurfeFb1ntfdxL3mOwvfGq+My4Uq3LI7oyXDuxdHg30taWYOR9rB+cWsU5CVOx/KZ53V7v9UoxkoAOvOCoL0Ay/Jn1yV8y/im/QTtWtXR13saLgrqEg2vubFDaE/DlRns0nBNfsvQWSe+KB6F8UbGmVffiAZCeV1L4DKPUIWVEVOC2szrb0Ujn7ytqzxetOet2liTN3J5Vlv6tC1MVT2Y4V/1beGrjlXtkj7Xbdzp8+nvpmnHZSeTJdObPqv280JcVd2pvvWX5lOsa0/wJnWapmdxqe7Uljratdyx7Pk0rIzU8gYuhOtMvtNn+vktY7bYtwlGEr0knEt0OvDsi6X91ozgce/NtmentUGuri2PUzffXuzXqWuqe+sLqiPvKZqr25SP9Lelo2PH8/PzxWQeE6hj2FYrSMRWfWvvZptwpTwZFzNvvhPGTz9vQWDsUiTwjFrelK+ciKftBJSPqfYkGQvf5Ki6s/dfLrzaRF6IKnvqNRt/t/f1Vjy554d1baXyorFHZSt7R/j6tr6WY8mH6/bc4q3qr4qzabiq9MuYT59RnxukcM332Wffxf9/e2fiZVdR7f9/+IECEkKYIlMQkSBDAAUHnogIMoiCAyoqKOKEqM/nz/cUMg8EMhDS7Xtv3d/67L77Wre6znC7O92d5JO1ss6959apqlP1qTqn97f2rrqtx7yfbfbzKOs4N3czRz/+7/FOlb9zXIlo81Ds2V5vZ8K7PwsQ2fO6FYEn88ln1kbMe7Cbz7LMvz7mWHr/W99eNc/motFVvy0vxzOBccEczkKMOl/usVwoUv7OgpSzb78TEYd4RvDOQ4SHehFAjhUWZtZ/K5Ff1j332y7L8PPlY3Cwr+1rGZABGZABGZABGZABGZABGZCBRRhQuC7CE5988eXwPEY4RJApvQnKRsVIg/EGERLD/dHHnujcy7e8bu7z8nII4uQxRoyeGdMI+VyFj57LtyGOYFyeGa6Xl0NExVsLwTqN39wTnk7Uh/N4U8S+mcdPhJcwIUlJ01cW7ZX7CLL/c1PkKEK+1/sZl+nJB2Mbni994vVGGg8xeMb+no02LO8bQ2VtZIxwlHv3NcP0slfs/mtuDM/8tQhLZdn0ZV02v/e1Qxr+U0wr82t9Jl2fkFVes2je5bWtz2PLZvzRrqWRdNS1S0vB+YHde2b7Ave1He2d4swHr7wafNP+4X1LeP83f907JvA0ZiwRgrRe/EHbjd3jum9vyFk7Ei3hqWdjgUuImF99qrdus+sGeB+TLhbX3Hb3yvhZWprgqUydP/zp6zNhO/NpeaVlH2RbZ9o8YkBHmC5FAvo7xwKec4h5mZ625TeOeQ4hJaIYTL3h+nipr0eoia0VCk86PMwQN5i3cm7M+yDvLDcjMdTbTOTv9TGN/LM5u+gf6lUL17Q9czVRMuCsFamhLqP8Tpv2jXf6pFWXzCPvueyb/G2rjpcTL31t3MdS33VDv2W+XeM1rx+bLtO3ji3mW+kYcxsmXPt+Nln3+9kWPY/KuZu5lwVVZVSCWGB50x2TE08/P/f+UDLFOzmev31zWgrzfWnKPPs+l8+yrnQhTt94e3g219GI4ln0yetnC6ZmeRSLqxDjW+8rhPqmzfIavM9552YRJu/f/Od9vFyklmnzSHshjLNAM8+Vx42YB8r8/KyhQwZkQAZkQAZkQAZkQAZkQAZkQAYufQYUrqfCdYqkiLalkaseBOmpEfvgEaaTUK3/77/Cqxaxpu/aWV54Nr/8wxALOI69hrphRMKgNlYEocxSeMD4hPEqhRZ+x+MET4kQeqYhOrkmxTLSI2gjFpbXze4HYYW9Vh96LERBziMoItp1pi8WDJRGs7k8C8Gm6/xGiiYYDw/efs+k3G+2VS6GyhTM8neMmJxr7V2NxwqeKiFeVuEq8/qxx+iXytOYa+t2QMzKtl/EO5i8aIc+Iausa4oKXFOeX+vnubKXloKhD3/00whnz2KLvjD0c9c22IlxetvdsS8sovfRfY9HeFv2+8Vz9tw/Vkc9oO0yFGbc0/JyiLKMQQz7GGRb9wr/jFc8kBk/sU/6w4/PLXAZqm/mC2+ww36Sea7vSJ+EEfnXvxuVvi+vsb+xaGX/jlvmPLrS+E/EgSExNfntEsLCaH/znXMecLQfYw5BGWH11M/emN0vbRDzWWGQr++lr/2Hrk8RoRStyT/vg7xn5eX2C1fsCCaG5vs08rfE4hxvKZYwxqlDtPFf/xYCNmM35qFCZJ/VpTEuyGtuvLOXPaxNry+fH6188p6zTq00nOO+jj7whXh+sUAo56eu9Os5fznx0tdOfSz1XTf0W9eeuvV1WX7XuK7Tt77XzLfScI4x1ytcw/OY7Wd8P4u5q29+7OqD1nn6b9OeR8vLk9O/+FV4TMdz9939sz5nkSaRWg7f++DKIqTGXDirPwy89L3e6EFjuZzl2VMebb3/2pt7n5OI07EdxvET4THO+zjvBTwneNatuj7fVa6+YXLk/pUtGhCveR/NOrGIDJG6fD7HmL3rvpVFow89FtGEMn3riNDNfvV9fzvlM6Jv+5LNfD607sNzl77Bwz62j2VABmRABmRABmRABmRABmTg4mJA4fqf/wxBFoNneBj37LtJOD32v8Pw1QwveO1Ns71OOwfCNBw3HrgIcikOdKYvjF0pUoTI/m/XTvAajb0nB4yxncIDRr43fx1GRTyqEeWjHtO99DCGYXCKcu97OAxZsWfr2bMzw1fWG6Hj4B33TNhPMM8NHTfCMJoGsSHRZKgu/I5nToSHLPaobl1HWdk2+TvXYlRcOvH+3P1H+1570+TwvQ9NDt722eizc//197k0mceYI31Zl811dTsQopj6JCsseDj1xpujyl2kX9J4yzVj6t+VBqPluf/+x+T4E08FZ3giY2Q98vlHQpBAiO+6Ns9nW1OnPMcRfvFEpg1KoZEoBixUOPuXv86lL69tfcabk/Capbd3mS7miV23zozn+VtsQ/CZ+2b70mKIxtg7J4wX43123bv7V3GVv606Tj2syvtclaZRxnrS4EnOvMhigLl80nD+iZ0RbaBv0UHy2yVwIUrjuc4CETghPfttMhZO/+o3YbwvhX0Y4LeahbJ+fZz3XU+/074Y/GsG8j7q8cC8wHgcCj9L/VLsGxKu4ZooGSzoyLk7vK/v/nywzsKKYHtAwJ4J1+/8OdITzpUFG9lWnc+PKUd5z0NzMG2KQM6cNKYdsvy1HC8nXvrap4+lvuuGfss+7xqveX2WP5Qu07eOyc0QX4w52KrHXuQ5FaMZg7mfcass3sd4lvt+ttgCtmZbMj9s4vOIhZLMXQi6598/Gc98FqQhWBPamudTHeK6s94jnpHJJVvp8DxYz3/m6rnFQ43yiSiC8F7WmXeK2JOb7SqKyB+kiYVjV98Qi2RZsBHvt9NnMdFj6BsW+Bzac288T8t8+fsmIow06jGXbhrtoy67TMNnhHGE9b4xnO25Gc+Hun5+v7gMF/aX/SUDMiADMiADMiADMiADMiADlwcDl7xwjSfgEMzpcYzhpJUWI22Ezrvx9pno1EqXHoakxZOhToPIgfCLJ/OiYlk/8iPUAAAgAElEQVTmhVhB/ohwKUq+d9X1k2NffnKCoJbpymNLeIgQxvc+GPtXx/52hbiR3lSlcIKxNw1keHlEuPLiGrxcjj765eZ9l3UpP/cJR2W6vs/nj5+I9kSkOvnSK2Gsox8W/c/egBiraVMWBOCF21UuxrdSPCYtBvHS45N+QpTEWJfej4hLhz5zX4h4GFdrkburvPI8fRme8FX9UkiYMwzm3ryVYFvm1/qMwDhkRM3r0tjYEgsiOsE9D6zykmYcEKaTxRIHdt02C20N07Tjye9+f3L+8JGFFnVQH9qfPpwbx0tLEb6afm0tTEGgg2v6HA+rEEVHiOSUx3ij3bkGETrHfOxrvHN3cwsADLj0H/fJwpW1MJBt3zrCPSG1xwj9resXPcfcyTyBgArzq65Pb2Pa/87PdXqon/v7P2IBTVPgIprDvsdiHNHm4d09HatH7n8kDPMIFOUiIBgYEq77OO+6PudfFkK07jc8fXfubopnUd5V/Xvc034p9rXaK8cb5TOH0C71wge+E/0inxF4/Z98+Qer+2YqSpz4xrdWwozfcNvKAoAj8579redH2c/NuacheMAkbEa9FlhIU5Y16vNlxktfm2TftFjqu27ot8y3OV6Lvs93iaF0feXNmP/Gt+IZ3yUQRmhr5pm77lstIu7dN3vOMP+2xGvfz+b/6NmI97NNeR4tLU0Id832HcyJs3l5ujCTdwyYOfsf//mv3wpG+9jjN/LjPbP21p9x+c3nO+fWobzz96G27lsYyvs776+zRVTTRRq8e85tK0T4+2dfnM2/LMDlnZn3H8Zz1mXsMd5n9+yda3PqQOQanmFlPkSWYt7vWzy5ac+HBfq+vAc/z88PtoftIQMyIAMyIAMyIAMyIAMyIAMycKEZ2DbC9dKZMxMM6F1GyUXPpxFzTsjrM1jgtVwIsTQ83hkhNN+yZ0U0aQkzRZ4IVwgprbC+eCVSp/CwbHgsL9LRGNLCg/TK60IsLj0NW/mUwgPeJ8e+8mQIFOmtjbCKGISRkc/cA0YmxKgyPzxUEfgQYEJwm7ZXhhvEkFemH/o8ZKwbuj5/R3BEvE8hf81HhNM77pkMeUTPCddTYa5crIA4yZ6AGAZZIJD15BjG8S99bWY8PHTX3snJV364sv9xxV95XX6Ovm542KeQUPNOeREGsnFN5skiCkL3ssc7/Y9neClc413M/bXGIPfI3rotsYDwkfQFfQMzWV56YcVvn9gZYhYLH7oWXsyuK8fa2Y8mx7/29GzRAuIc4btXhcv85z8jTDft/NFf29EAaKOTL3wnhNOaHfIkb0RQwp2mGDhLN10UUHtyYYSdGdCLenMvq8q7Ysdk/7QMxPW5dr7v4ZhPKJ//tGVEWvjlW/9qz2n+Z976bfRTHQ2i1X4bcS5F6wgR2sNXehuX8yJjHzGNc3Ff16x44vIMqOuGl/WRBx6dM4azUADmWDTA/EbfwjHtx9hDnGIRA2JF5sc4wCNvVuZV1zd5IT1zGfUq5zTmOcZXLPSZtjncUg/qQL/h/RwG+kYEAphgUUbNBedZ9HPw1rsjfD11hDuOuRgi7yHFEljs3ZpieTnG8gHCqxMatmNuQXyAJ3imPOqSZeWRe6M8xPA5NtPL8IFHw4O61XeZR3mkzWhb+rU8v1GfL3VeFmmnfC5spnDNfMA2DMHKlGUYWqTeZdpknrEXi4WOHls1hsr0a/ns+9nqP7bW+362Wc+jU6+/uTJfVh7HyUG+87JdS7xzXHNDzD/MQZ3/p+8TpOdZku/KmSfHksvy/Fo+09b186rMh/dz/hbpmsczLe8WvBcdvP2zK++U1bsH1+NtXb4v0waLCtf5jpuLMrN8xH3Echbmzd6dpm3Je9SYOf9CPx9mda3bxu9rnqNt09Xzp21im8iADMiADMiADMiADMiADMjA+hnYNsI1nYmBKQwoPSLI2E7HEITRqRbyxlyPUId4SyhaDJpDxqIyT8QTvB9KwQFPUETgDfWuJMzfewdGGXAxGmO4RuBFoFsldC8vh+iDsYk24z9eGC2vpPK+8r4x4IV41SGOZLr6GIbRT14f3qr1b9v5O0ylQIqAdvSxJ0KMpH8J5Yh4FWJxlyEMT6C3fhsCGiIXBv5FOavbh/KoUx1Ksk7X9R0x7cPXXg9DLv0/J3QsLYUH+iLCclc5eR62Tn7ne6u8RfP30cf0tpqGIMaLuxYGIy/mlCE+2dv38JEQ2YlgcPhzD84M203R+t+uDQMtYUlH17dkIstjD2+42bM3yiNMeo7D+sgY3dB5pKzPAp/h7fA9D8yJuH1twBx49KEvzs2LpI/ID/c8sDLnsP/mn/6yqi3xEjvz9h9Xned6wsO//9xL/+rbIsoA9cOQX9eLsZZzXbngpEzHnIZBn2N5vvl5Op5JT3+NNdDXefH8Q8COxRFX7AhvuDrNomJJa76u80RoiO0vGqI1afP5UXvRZT4pjo4RJ3k+snCgq90zz/UcLxdexrQRfcPCCjxSx7AwJk/SDPU5AlUsarpiRwhYLIobm3edblHm6+uHvvt+1v5D4mJ6P+P5EH879DzDeC9gEQ/P9ljcxGK0nbtXL0abvgMzl/c9b1kUxVYm5eKoIda6fseju+u5TkQf/h7piwJEvhlFifmv+Q5UtA1thXd6iPlXXhf7gnfVbe78NOQ4C8nqRZlz6f75z/ibIhcv8kwb8zfCZjwf6nr6vT3+bRfbRQZkQAZkQAZkQAZkQAZkQAZkYKsZ2FbC9UY2Bl4YCIgbYVTayHptRV4I6b1C6tSgheEMwRKPbESUUXXFkPXSK51Gt748co/f0WUVhre+fC/0bwi8CM+EBc4QjXijYzCsPW9767K0FMa9ISNjbx7TNkHww2OSMNVj0nelQdQ7+sAX4t660mzH8x9879Uw7uJBuh3rdynVCeMyi2BaovBa7pOFNF0iOHPD6V+89S9hupgDlk6fmZx4+rlVXsJ4DeOhVofQLuvGcyHmrYawTTrKJPx4Xx5lfnxmjsWgPxSxob6u/M5cQPhv2rcOTUs6BIezf/qP5m9lPhv1GbETMf3kt1/pFD5pb8TvobaK0LJ3fm5Doo503d/lxktXO1zo84zZ2D+4CitflgvLvEuEt+rQoqFiXJd58JmxGu8kawhnXOe1Hb/7fuYfgn1c8iwben/nWcjikIXfpZeWIrQ3kUv66sBvH+8/GIs0ef4PLgKcjmf24OZviggRPjAHbMbzYege/d2xKAMyIAMyIAMyIAMyIAMyIAMyIAPbh4FLVrgWsu0DmX1hX8iADMiADMiADMiADMiADMiADMiADMiADMiADMiADMiADMiADMiADPQxoHDd4+nT13D+5sCSARmQARmQARmQARmQARmQARmQARmQARmQARmQARmQARmQARmQARmQgY1hQOFa4XowRKCDbWMGm+1oO8qADMiADMiADMiADMiADMiADMiADMiADMiADMiADMiADMiADMhAmwGFa4VrhWsZkAEZkAEZkAEZkAEZkAEZkAEZkAEZkAEZkAEZkAEZkAEZkAEZkAEZ2FIGFK4FcEsBdEVJe0WJ7WK7yIAMyIAMyIAMyIAMyIAMyIAMyIAMyIAMyIAMyIAMyIAMyIAMXE4MKFwrXCtcy4AMyIAMyIAMyIAMyIAMyIAMyIAMyIAMyIAMyIAMyIAMyIAMyIAMyMCWMqBwLYBbCuDltErEe3VVlAzIgAzIgAzIgAzIgAzIgAzIgAzIgAzIgAzIgAzIgAzIgAzIgAy0GVC4VrhWuJYBGZABGZABGZABGZABGZABGZABGZABGZABGZABGZABGZABGZABGZCBLWVA4VoAtxRAV5S0V5TYLraLDMiADMiADMiADMiADMiADMiADMiADMiADMiADMiADMiADMjA5cSAwrXCtcK1DMiADMiADMiADMiADMiADMiADMiADMiADMiADMiADMiADMiADMiADGwpA9tOuF46fWbyz+XlUY3y0X/+bXL0kS9NPj54aFT6RVckLJ06NTn68OOTD155dbJ09uyGl/HB9380+ej//deqfM+8/c7k0F33Tc7+5a+j22LRe8v0lHH4s/dPTr3+y8k/l5ZW1SXTbdTxxFPPTt5/5oUL0p4bVUfzufCrl+Dt2Fee3FQOzr9/MuaL1pi71Pr83Lv7J4c/92Bzftmqe10+93H0+Zk//LF3niHdx+8d6J37zrz9x8nSifc78/n40OGYu9f7bKCMpVOnV5Vz8sWXYx47/8GHq35bpH2Pfelrk5Pf/X6zjFH5LC9Pzrzz58n5I8cG67H88ccTxkBXvie//crKmOxp165rFz1/+pdvTd5/7qVNG/8ffO/VDX3uwOjyuXOdbTnXHktLkxNff2bywQ9+fOGesUtLk+Nf/foEns4fOTquXr58d7bThz/5+eTk89/ZsP5i7M0x0dH2vBvxXghfY9JvRprZe/APf7Jh9Tp/9Njk8L0PTU6/9dveeX4z7s8yLvz7nm1sG8uADMiADMiADMiADMiADMiADMiADCzKwLYTrjEYHrn/kdFiNEa+967aNeG6RW9+KD0Gu0N3fm7y7r9dO9m/45bJ2f/4zw0rAwHh4Kc/M3nvEzsnH/zwJ//Kd3l5cvQLX4nz73/r23OGQoyZp9741dy5oXsY8/uHP/5ZlHf47s9PuOcx16wlzaw9r9gxOXj7Zycf7z94wcpaS/228hoEshByRohGxx57YvL+8y+tXezqMJovcv8YnlnUsVYR+OgXvxrjivF1/viJTeHgzO/fibnivat3Tfi8yP1ebGlP/eyNybtX7Ij7RZBcPn9+zffL4pYjDz/enJMRhhHL+H3o/+F7H5y8e+V1kwPXf3py9s9/6a7P8nKIjDFHIGA3eP14/4HJgd17OsUl5lTuf/+uWyeI+K08xpw7/tWnYp4OIb2oB+2L8LJegenog19YeQZ879VVdYy8OxYTnT/5weTkyz+M++P5dGjP3gnn+u4JMf/Arlvj+dIS3E++9L3Je1ffMEFU7stnI37j3o4+9NjkwI23r3kOGV0PnqkPPbYy3+zZO1n6cP3PONr6yH0Pjxajmd953h+6+/OD/TT6vgoeuYY6wcF7V10/OfWzX1zwPlxrPS/0dYxV2vn0m79eUxtkXzF/wE1r4cqi98CznWdea9xlXizapP9iPN+1d13PRcZ6udjy7J/+EotbWGwRz75iXmHRC79nPepjvrft/9RNq9p0+exHkzO/fbsp8J/53R8mZ37z+2a+vLfTvgdvvduFFtU4rtvf7/5hLwMyIAMyIAMyIAMyIAMyIAMyIAMycDkysO2Ea7ytTzz9XBjQwwt4wKiDgIbxG69hjGgb2YlpsMOQiEiwkXlj7Hvvk9eHiFB6mH/0179N9u+4OcSdI/vmxaCDt90dxj7aZyO9o/EGQoTcf+3NF1RESOEQAz7G4aH2RNDEADuUbtHfs+3pV4zJQ9cjfO2/7pYwKF8IzigfLzkEPUSHIeHoxDefX6nLPQ9cMBFkqE3K+n7409cH27DMb7Zo4+obJnjOlr8NfYYbPFSHRLpV+RQLQlioser36TxDvgixF4K7rjI3+jzjmcU/CAMIBIP5Ly/HuO8TYWEOUbM1J58/fGSwP1jgcOCWPROEWhYADfVfzr3MhXgUt+7hw1dfW1ng88wLc1575M1cefCOe0Z5Irfy5lw+W1hc9P6zL05Kr8nwaGf89Xgwd+Vbnqc9GPctL1mEnyMPPBp9Q3QRuOc7i6iYJ7gOoSsXDCDW9y1QyMUMpG8JaIiddV14poaoVQhdPK8QBYf6sLzP1ud8HrCgYaOf3WV5PEcO3HRHvCfQp+Vv6/mMQMrCiCN7941qi5MvfDcWbqxVUB1T1zN//HOM0zHPtTH5Xeg0tAVRc5Lh9R6P7nt89qxm3MZ728gIPnGv0/dP3g0YC2f+8KcN4YW5lYUO+6+5cXLqjTebeTJH8g62/4bbJh8fWF8UIeZr6k97HH3gC8HEgZvvjHkm5pyb7pi1Oe/PfYu5ci7muhYPdX70YZYZC2Hwqi7e43N+RggnKsjF/Kwt78vPGhFkQAZkQAZkQAZkQAZkQAZkQAZkQAZkYOMY2H7CdSEYYJSP0OGF0avV+cce//fwVq1/w0CGEW0oNG19XX7HM+vg7feESIj3c57fiCOGZYx6GJozvxSQqXMtIp0/dnxmfO/ycMl8yiP5l5435W/l53P/9ffJyRe+MyfOlL9THwS9o49+eVXdynSdn5eXJ8ef+MZoMS08Km+6I4SBtXr1dtUlhQyM0/TvkAdeCj6kxyDcle96zqcQjDBVLmRo5RlG6Z27L4zBd3k5vAiH2nyR+tb3gFiB5y2e40P3yrWI1R/+6KeTQ3ftDX7oh9YYqcspvyM0Hti5e4Kx/OhDX5wZ7cmn/B+LQ4iwsOvWC7qIo6zbRn8+9/d3J/t37g4Pz8EFIng3P/ti9Mfxr32zc2yniIuQzOKarjojSiPQIILGHAZP3/9RhKBuiaVd+XD+9C9+FfVChC9F47wmBZVabCX6Bs+OMeGzM6/WMb22iYBRc5qLA6hj69qx53qF6xQhH/zChMUWiNc8B9ayaCnri4AbeTSeqS3hOtuY8YAIxlhh8Q6LItbrPZzP17HzwNg2rdPlQiX4rn9rfUf871sAUF4TYvQVOzrFyDItcypzWEuoi60TvvS17vF35Oi4yAHLyxPC2Mc2I40+pj5EO8DTtWtBSFnnC/2ZOYKoDWMWLvAeA3M8O9Y77rrui4VUvJexuK7VT13XjTnP+OX50zWHhhfyiHcMvKbr98O6fN4RiGbC+M0xfOIb3wr+mXNKEZrP5XsHfXHq57+YLS7M68tryvLq/Pgtn/G889V1jfu88rp47jA2eX+v05T5+3nj/uCzLW1LGZABGZABGZABGZABGZABGZABGZCBi4WBbSlc03gYmfHEweB+7u//CM/kUmAa83kmQvV47fV1VIpzCGUb6cGUIlAtyCCQYjBtCQthiFxDmFGMihhKwzhZiXS0YXjkYLhs/Faey7aM8Jn0S7EHI4LHkNfUzAPnql1hJC3zrj9TJ8Qo2p3/Gy4iFqFjx3iZ0/fUAw/5WDTQIQj0sTT0W7LWZRwurw/husNLs0zX+jzk4TbrJ0IG/6I7ZPAi9Z2rx9TzGQM+hvy53xCpT52K84gveGO9d80NK21/zQ3hMUn7HP/a07E1wGhhcrpogrz6QqIiTiKiIYycfOmVOcbrem7FdxZcHH/iqdFj9cDuuwbTpggZY+2KHTHvlmO7vE/CZodoNBCCN4TzG24L70LG8lq3BEA4itDWDz22SjjOehGCNxYVTb0qEepjq4kixDj3c+LJZyYnnn5+tOg78wrsEeoRthHpu9or69h3hOdaeM/06T3L/Jrn1noM0Wzn7gnPmK48SuE6wweH4L1335zQFULwVbtiEVPfYgRC1DNPdJXHeRY6DIViZhETc95a2xluu+abum6x2G3vvtGifCyI2b0n5hXEbuaN+nk29D3n3NazNesHC3jrIkZ25nf/o92/TZ/vs7Ji+5PuaAZZ7nY6JneH73lg1GK8ResOZ3g7H9pz72SpEUmBCAE8l8YsBGyWPX3vaL1HIBYzFw95W8NnRlnoGw9N4Xq66I45p3zPqL+nUE2UGRZb5PfymvL+6ut5jrLYp7VIJhdgHrrrvsiXe2AOZW/venFQWYaf/aNaBmRABmRABmRABmRABmRABmRABmRABi4vBratcF2D2ApHG8b4HTeHKLFmY2KPCJniHIbGI59/ZJRXUF3v1ncED/JERMzfMZqyp2vLOxwhCOMgRstZ+kOHwwtvyPuO67qEEfIKY/Anrw+j6dKZM7P8s5wxR4yPQ15TGPRTEByT54VOk95NCHZ87iovjbakC0PsBdqPOb3Au4zDZf36hGuEJkLJw0x5TX4e6qvkAd77BKUcG2Pqm2VzTM/n9GJlXOMBjSc//xFlEAfwMCXU88HbPrvucMwr4fdvmZx46tkVsa0YR2Xd0ttuvWJkmedGf0aYjYUtHeFvUxhoiQbrrcvpt34bWwowJjKvM2+/09z7eiYyNbZw4BryGiNUEAkCcTREQUJlDyywwSOTkORluvDSvGJHeAmPFUjS2zq2ZehpaxYalfN4tsvYYzk/8wwrx+5GCtflQjDqxthmYQBiXC46Qkx6b7qwKMIHf2JnjEPqWI7zmH9uvD1CqXfd50xge2BYTC37qv7MwofYpuGKHU1xa2hRG3sUs3ArFm899NgcF3VZfJ8t0GLf8DUsFKMP41lYLOyaCXk33t7rCd3VlpxPFmj7VrpcYBDvFeuMAtDKf6vPxf3d/0hsDbCe8dZ1H8lrRGroeD7Qj4QeZ27t2ru5K/88z7xH5JpadE5v7AO7butllLJzkVEs7Cw5K95l1yNcp4ieYz7fgfJ73kse6/mBeYXFhqveq6YLyGqPc57PvKP2beGRZXm8vP5Atb/tbxmQARmQARmQARmQARmQARmQARm4fBm4aITrVZBOvTrwUsIQ2Of5terawsDX9xveYHg5hRBy/6MTxMW+9GN+w7CNQbz0GkqvE+6F0NW1QR0Bj/Tl+TCw4yH5xDd668Te1X3CNQbOOmT5mPtYJA37NeJJNHZv60XyXmtaPInwtsYI3OdNPzbdWuuR1w0ZhzMdxxCOOjyuMf6yt+davdTJe4xX7VqFa0LrjvV+xCCe4U7L+1/kc44txg6f8TjFs61cBEJ+KVzQbuxdu0gZ2ylt9N/Yva1HzoN99xfzx1XXxz6/5fxE6FlE0NpDdCZEXnndZNG90Zui4PQeGMMbNb+wOIC8xuTHghzEpDFhhVkYRLjesp0QqlIsTtGUuZKFJylWrtfjmrxChCXM+LS9qDflsm82i6YiPHBjj2vSl8JUilqM48yrdSSUM/cx5HHdurY8l32B2MWClnrcIiaSplxMUV6PeFYvEit/34zPKUoyt7Bv+ZgFG3W98l2E8Vb/xvdZdALmuY8/bqZpXXexnJsthLkA3tbxjHj48ZXtBbpE65wrEa9f+G7sMc/iq41672RhSS3oLvJOUPcjnOSzM/NJdsrxzHX19/pcXk+6upw6Ld9Z9JNll+npQ579LYE63luuviHmo6HFmGWefr58/3i17+17GZABGZABGZABGZABGZABGZABGbi0GbhoheswZF69a5X3CkbbD197fUMMimf+8KfJe1fvClEGb1CMx+sdEHi4IRgc2L1nZQ/d6R6zx5/8ZniYpnExy8Hwjnhel0069uwdEkwiXYfImSJ6HbI8y54d2af2lVcjjDJG3tn5NOb2HXNva4Sqn/x8sWt78kXMCS/o6b1hQD72lSfDMMp5xFsESoTnVn3TGEtaBKrzjdCgXEedScOiglaYXdqX39NQi7fdkX2Ph2E76oGoR7jkg4ea9ci6ZX26jMOZjmNXnyJQsbdxhpxlwUB5XX5mP9Wzf/qPVb+lKBXeugOLNOaE6+XlyYevvjY5fO+Dq4Wlog9ThGIxxRhxhbbIds26L3pk/MQ+5ifeX7lfxtszL4R4CP/kl8IFzLSM6ouWuVXps//X22aL1L+LRURXFsxwrPNbb7/CaYR8X1pa6b+PP47tB1rj8/Qv34o9fes69H1nz2/mfZ4xfen4LRc8jPXOXTp95l/elsvLUe+uhUUbIVwzzgiVXUbyoM6I5Aip5V7IZajw8r7pr5yXiJjAtRzLNOVn9lDmnsifbTHK3xb9HKG39+5rhm4eyivnmzqCAnMtcxDPtJwDhvJa6+8xt9z3cLQH7VLmc+6//zFayM75lvFW5pGfY6HANTeGB32eax0JAU97lDy00m2nc/QRC/d4nh6++/ODz9JF6k7/sPCRvcdXLYoonl1zeU6fITxnYzHCH/7U7JO5a7ryYtHBdGEf8055zSLvBOV1fIaTfA5kPslOOZ5JW3+vz+X1OQfUZZXXM98wtuq5k8UxRHHojHiRbXrldfEe0Te/1OX7/dL+I9X+tX9lQAZkQAZkQAZkQAZkQAZkQAZk4PJkYFsK1xgTP/jBjztF2RAL7vzcyh7YlZA682664bamaLII6CmO4s2Hp9yq0Ic9xshWORj1EIkxwGLYJ0TiqTfeDA8VhFcMjWlczOv53hIAON8leOS1HDMdhmoMtKW3X5dX5Fyahx8PARgjLfXmN/qnLKPv8yLhl8n35EvfGyVSZN8QRpbwm7MQmtN9sakr//Hw6TLSx569pGksDMh7yv2tKadlTKV9KQfxG5EMr6ksuzzG3pX7uz15h4zDWR+O2aelN2Puz0n5EYa5h03amT1/a1E/vcu55zKEcM1DfJ961EZo0737YqEA99sn4GX4ZXgeEyoag3ga38v7H/uZfif8Pm1TXsP9cw8Y2PGCxZiOVyZhYNfiDVnmvVWfuSfCIrMophYNWnU6886fg9dF7pf5i3m53Fu8xSLlbYhwzYKZH/x4wlgv7yHHChzhwc19M/4JOT/H6pRL5oDevc2LsUK6/dfe1C2wFGmzTnBGGRFm+Mh4oZbFMswbXfP4uoXrpaVgmj3AmSvyf3hbf/L6VYs0xgjXLA5gj/kubhhPhz5zX8yB7KcMM9lOix7ZZxgxb63iMmy2oonM+PnUTesK8879EMo+Frt0hJNnQQ8LzBhvc/dfRoz58pOT5XPn5n+vOJsJ17yHsLd6FTKf/exhcNUYKNIxVmCNebrvuThXz6oeW/EbbUgUkIyQEgvNFhhnXXWGr8P3PtS5p3XXdXgEs2CQ0PrZlqPmFxZ4/fhnwUyZN5yWEXjyt+S0SzDOdK0jeeazM/PhHGlLobn1vT6X13fVo8yPd4hjX/n63LiP9/W79q5aZFrWm75gXmI7j3jXvGJHvEtEhILpAqUyvZ8vzz9Y7Xf7XQZkQAZkQAZkQAZkQAZkQAZkQAYuHwa2hXB97h/vhjdvGmMRvzBeYXirQzGGQPPIl9pGsDQGX3ldCB5dxvWxgGPowzCJmIrnLQLJevJEUEJswaOTEEcAACAASURBVPMkjYpZlzQOpnExz2MURBDBUy/PcSRdl5hap0thpN4nnJCX1GW9XnFleeXnMFju2RtG5zrUefZ1ecx+p04IAmVe9ecUrhEcaVPaAuERgzKebOQ7E9vvf2TOkJp5sVcmBnH6uLUoIYUlfsd7G0/PvDaPyQgCCe2MgEYIZIQGvOS5juv5TzjQvK4+Zv+3jMMIY9xPeoRRZvYp+WD0PbTn3hDBxoa5RsylT0pRlzagPUP4XFqKvZSpV11XvqeQ0qpvM/3Uy5N2CDGJkLkDokiwf+fnOsMA913PfR3Zu69zr+9kE24udtGadohQq5/YGVzg4V+Oq/rzLFz3FTsmJ77+zKQrNCtRAuYWu6QQfMNts3DqNYvZJ2sRrlftVzwtDzGeRSGZN3Mwi26G2EtG2U6B58bs+g7ukonefW47ri3bf8yiDOqS4Z/LsVzWcRHhGmGU9sg5gnwQfGNOZcxNw7kjYofg/8iXVs2JpXCNAJULW8g325rIICwOK+tZf2aejH3Y1yk4hef2zXdOiBBRlzH0PRYgfOqm2DO8fmbnXFs/g4fyrPdZz3EUkRp+9NNVdWTeJrJK7WlNObnALqJBdET7KOuTLDPe6NdyH22e3zwzh8K3l/ldLJ+Zx1n0Fff34svxHM2FLCz8I7pO1/zVd48nv02o/Oub7yZEFIhnOc9zIgdMo5iwOIC5lIVdPCsJs58L1Vrvhmwtc/yJp2ZzMQs5ePZFNIffvxO8RBj/PXvnnsNZ7+Q0x16eH3OEk+Q78+Ec15bjufW9PpfXd9WjzO/U62+uRBGYzpPMR/zOvMMipPpZlN/pX97XWBTDXBpb9Fz/6ZWFJeucR8a0l2kunz967Wv7WgZkQAZkQAZkQAZkQAZkQAZkQAYuDga2hXANLKWoimES497Zt1eMewkTHq+EI0ZMQaDEmMv/M7/+XRi7Tr7wnTAMYkQcI1Rkvl1HPDJzv19EBrw31yryRrjLex+KkMoY8tKomGWncTCNo2EgfeixMIyGV2vhOcVvpGt5k2V+eewSljAoYqAtxVTCxoboshGGwgwRzh7SHXsjZh3zmEINBuFabMg0eUzhGiG05T1G/xMSNX7v8JbGsJye2i3DcwpL5JFG3yw/j5zn9ygHQa/y7s1wtfzeF5J81v+7bpsz7qaxm+sRYum3sk/xfoUljOlLp06vEk+ynq0jwn3u9xzRAPbuCyZK8at1HedSSBnbtxj6qSfldQl1dVmtcVKnaX2nX2kjBP3W75xLbzvaFQZSpOtKv53PZ4jwMfNB3gdti6gWAmOHGEvacl7OPg/P9Ok1tDPCMkJyihAcmacRhjiW52Pu2nXbqvkv6jXdrzj5m5X3wndWzQfUf4i9vD6Frrz31jHmi4cfX1n8cehwJzetaxEmCdWMZygiJgIMY51y+55DjAn4i/S33b2KwZwP8eys27D8Tjsg9JBXHfHgzFu/nRN/8GBmHM7a+Njx8JAkP8qJvty7L/JD4GZcZFvH3PPUs733RPuEwPvSK711Luvf+pyiMPcE14uI19STxQcH77hndp9lv+VcWz+DyzRdn0vROPM58vlH5sRT+py+ZXyxCAgO+c+CKoRWhDkWDcV4ffuPo1hLlhlvdd3wwGZOzYggLByARZ49ddqL6TvtyHM5n+/5zJ+N5+Xl2L4D5scu2Mr7z7EVfH1iZ4jjPF/hHxGVNqW/mB9ZgEBftdoeL2HGL9e2ogvQB9kPsz5ksdDycowj3mXJP+tVHpOvoXmuvCY/U9fkO/PJ+ud4zrT5/fSvfjPhP+fzHJ/z+q56zKU9e3Zy7PF/jwVj9MnRR740m9fKsUO+ZR2zLnmkrYa2wcm0Hi+OPzbtJ/tJBmRABmRABmRABmRABmRABmRABmRgEQa2jXBdVhrDZEuESSNhGBuvun5y4JY9YRxH6Dz181+EMXgoJHNZTt/nNNalV3N439722RAo+q7r+i08th/9chgrMfSlUTHTI7YhdnCPeS7DjOJZlOfy+P5zL4VYhIEvz7WOhMNGgKgF99gTc8ctc95zaRguhY1WnmPOhQfiNTeEIbjL4Fnnk8bkmWG6R1DLusIC91jnxffZ/tRXXtcOCYuH/kOPheDTEpVTWJp5ITfqg/GVOvCf9K16EGae3wl12iWQJm9j2ooyESpCeL7ngVFht1v1wnh+4unnQuwKD8XrbpkzzhP2l37E4Fxfn0b4MfXFAI1nIQZ60l9o4bqu69z35eVoL8YE4haLE2KBw5XXhZG9a1/wuTwaHGzV7ynSwVZrzuyqF/1Qz0FdafN89nk5PpPFeh5iLNPPHPP6PI4tu1VemccQe33XZz5xnO6vyhyA0Hv0C18ZLbrmwhIEa8Jon/nN7+O+Y06YClosLJgrD3G32jbi/edfCqGfULkpdvfNhzn/lX1Rl1F/5znCIo1aKEtxjbxaY5N2zrYmzZgya5GqrgvfyYd2GpNf6/r6HIItXp2IgYR7r+8z0+dcuyj/eX0eM59smzyP2JkLohA18co9/LkHZ96kvK+wMK9zv9/G/IIozbsInqtZDkfaGeEWZnOxV9YrPMFffW0ufXnttv48HZM8e3kGUdcuXtjWgsV9tGeOncF7YxuCH/5kZY/36UK9nC9qLnIcMtfV+TJ2WABIXvVv9ffMP/OBE8TxOl1+z36s+crfa6G89PCO0PE7bo73mxD/d9wcix1ZJEJblYsh+QyjPD/4zyKRcswP1aNMS92YZ2jDeNfpWQRJO9Rtnffm0T9kZUAGZEAGZEAGZEAGZEAGZEAGZEAGZODyZuCiEq4x9GGUxjO4Dg8Z3m5X7QrxIKEmzPiiXqh5bRqKZyGip2HI2aO6NhjmNV1H6o1HbHq5YegbMtgRNhcRvmXcJh9EyzRUd5XL+VZZaeyu7wXD8CLiV1e51I26Ixxzn9ShK215Pg3EY4SMNGL3CR+ZX1+amTh99Q3zIlshaiNCYBQu65qfMb6Sf1+7ZV370gwZh7M8jlHmlddFeP06lH6ZbsznUvjEs60OA0z7IIzU3stphB/s2+Xl8MDC05P6kL4ljrXq2mKXdPCLJ1fk2bG3bCs/2gqBB5GXBSKzuWFpKQSv8Fqdest++KOfzsZrK6/tcI76h6fzA49G/fv4quvb1bZ1uvJ79nk5PmGx1Z+MvQstXJfiS8trl7bBg7Ksb3k/8Xl5ObYYOHL/ozPGlz48Nfd8OfXGm+FVWYuGXJ/jln2dkyc44zkVYYwbIiTX8XyhfYjowZEFEzDNXEKbkibnr1b9c05p/Rb3VZXLmMErNEXAVhryavUlrPCfa3j2HXvsid58Wnm3zi16D6086nPUMwTbqdhZ/873WZ81tiHg2RUevCO87jOfbJuyLOZNBOp85udvfMcTHO92ro/zy8srC8t65rIuFmIB2jU3ThBvs4y+emWa7X6MhW+fvH7u/aePlwgrf/2nY/Hf0DYjXfee81u9NUu2fY7L+noWeNXvo3Uavmf+XfnU1/T1I+9WePS3IrzAGGXkO2bmk+WW45ky6+/1uby+xXmdNu+BSD5zjFfzEenKOuZ1Hi/vP0jtf/tfBmRABmRABmRABmRABmRABmRABmQgGbiohOusdH3EswoPq1LkzTCTeNGtJeQg3nN4S6WxjzJbXsp1XVZ9Rxh54TtzBkYMgGlUXJUeUePv70a4ykN37Q1vYkSHTBehoffsDeM8dczzXcdWWSEsf+qmOWM312MYrsUvDKPUNYTyhvGxLpfw7ojWpE+D56DANA2DTlhhhBzqUedbf08jdl3fMl0anPuEa7yCEDJJw17meX25v3UrjHimgw+ubQk+mWZMXbOtuozDmRdHyuwrr0w75nO2Uyvcae6fWu/7m0b4ofoSKpfQoekJR/qs+6o9jetw+FNPMNq/FCbxcKPNGZ9jxGsExRNPPz/Zv+OWmCP4juEfLzMWvOQCEARHPF7xhoz8w0v+pvCWPPniyyFEUue8lzFte6HShHhPez3waAimwdiV1zVDc5dtl58Zk31zUKve2efl+OxiEaboZ451Xq05qU7D91Z5mY48htjruz7yYW5+6XsTolf09SlpcsuILD+Pi4zbvIZjhHe+5c7w+s/xkPse5zjMcVm2d+aRc0rrt0wzO069V8vn4+y3Yk4nr6xL+Xvd1oQAZtuMViSQ8rr8zCKRVqSJhe6hqGfmWx/jPeBTN83uYfmjc5OTz39nbu6A//RAZfyXc0t6zzP2x7w3LNr3MEb5dVSYM2//Meai2KO6Q7xuscAcQMjxegFas14w8OyLcb+5wKJuv+3yPd5Prr0ptjEpx+UQL/Es33VrRC744JVXZ/P62PvK+aKeV7Lty3fBsXmW6TL/zIf7ZLFKzsn1MTld9f5ESHO2JOD51NiehDIpI+f35CHLrcdz/Z3ry3N5fd0ueW9l2jwXc9m1N/d6opd1zOt4FjMf8z+fy7PfRswBpvWPWxmQARmQARmQARmQARmQARmQARmQARm4NBi46IVrhFX2JMQAWBo5w2PnEzsjZCdhxMd4xCTUGcYVb73Skym8pW67OzzOFjGq1R7aGPrSqJhlxpE9G3/+i8mBnbvDWysM3fsenxx/4htRf/afPrDr1vC0CW+uo8dWiUJ1fuGRWey/iOiAsRPv2qMPfXHOaIqHDAJN7ktb7jNK+iHxmt8P3vqvvVqHDJ5zdR3wMKzTphF7vcJ11hEjMIbi7Nc0ViOO9i0QwPjKtS3BJ+s8pq5Zjy7jcObFkTL7yivTjvkcIdWvvC7Ek5YYhfcU7VCGQ00jfF9960gD1IX0s7pP9zTm3lv17BwnIw3YhHFFiIZ3xksp2NCGhKFtMU069nFmXuG+6d/o45vuiEUV5TzTqveFPkf9aBv6JesCY31joa7TWto2+5yyMr9ox43a47rq11Z5WS71539+bx37ric9wh97eLeuLc8RLSO3jCjP85mFHYSdH6pLeV08X+57OLz+uS7HA+eZk3O+iT795PWxT3J5PZ9zTin7ok4T35eWgn0iDcAK/1nIdfqXb8V4Lj2C8RLOupR5tdoakRXRtFxUVV5TfuZ6xtHKM/rcrL1H30PFRZl3fka0JDIGY6C8BxajwEH5/M+5tvkMHlFWlpn5jOr76eIBxPIz7/xrMQftz6IghMiIynKk/Uw/84c/xfzMQqAsP7aguGJHvEuUomdL8MSLPOeyXOyS+WynYyx823HzyiLEKsz0GF5y8QL3OrRQo75vto0g6kbdn/kuwFxXX7PI95yPMp8cizmH13ktxFfFLWVktKDMJ8utx3P9nXqU5/L6ul2yvmXaPDebF7/41VjwVfKZn8tw5nmOOtN3jAeewfk+lvl6vDT+8LQf7UcZkAEZkAEZkAEZkAEZkAEZkAEZkIEhBi5q4To9k2vRGjE7xNkOb5ShRiHf/Tt3r4RILryduQ6D/SICUassDH210TzCGONZunff5OODh8Jgh+EOAx7/8TLlOgS4Vp6tc02D4/JyGBJbggfn1nRv5Pmjn07wWCtDSjfLrwysZb3TQNyqW5mOz2nE7qtv5ofo2Jcne2SnMJkhwcPLEo+m626JsL51+fkdY3Bce/2nVwSSxv2NqesibUWZpTiTdVnLMfbo/PRnYrECoUfZ77k2pCOWIPKWhus0wpfn6vIZR6Uwxu+kH1t30tbjpC6j/k7dz/zuD3E/R/c9NsGbsRStMv1R9vrsCgHPApI33pwwJgnhjKci7bKWyA1Z3kYdGV/UJcTNwjsTxvrGQl3+Wto2+7wcS10sMvboZ45rLbtVXuYVHO26bW7hTYofs+OYUOGN8ZplcMxx2cVh1pH6lNf1fcYb8TDh90+83zseWFDS1ac5p5R9UZe5fP58iMU8P+iL9665YWXB0iNfmpx5+51V47zsSyJ7sPiL8cS91fcX3q07d0cUkrrc8nu2X2sbgr57yEgfCJllfq3P1IUFU+HBOmJ+yTp19WmrjNa5zKdum1Vpl5YmJ55+bkV4LkRrRDnEVRaLDYmstFXNAnPB8Se/uWqOHV2vAfZX3ccFTk//sWivy1u6j5eyrrloscVcma7+nO8LvA+Uv+V5xkd5ftHPOVeMzWc9/ViO2cwny43fvvjV2b2UafOeynN5Pefy9/JYps3zGbGG31jcwjtt/V5BfdY7BrM8j/6xKwMyIAMyIAMyIAMyIAMyIAMyIAMyIAOXFgMXj3CN900h1IQHEntAP//SnDCVHkwYLfG+WQuw4WF65XVNo/wsdHK5R+WCBl2MeWmww6hHWETE94/+9t8r9Y3w4isCOUL58a89HcI1xj/2Tq3FwK57TONhGiy70uX5lnE8f+s84tH3wndWjM2Vh9SQwbPOMw3E1KP+rf6eRuzamF+my/yGhGsM5ogHhIiGKzjDa43r0mupzLf8TNtuR+F66fSZVYbist75GVE2wo2+dyAWZdAOCGb5O0cEW4QvQv7m+TTCdxmzM119JP2FEq4RAhGAUpSD/xNff2aVuDnzSLz+05Mj+x5f9TuLR0Lsu/H2yVr3S63veyO+n/vHu7FHdyxsqeacRcduOQeNrVv2eTk+4b/Vn4w9znOs8x9bdqu8zIs8+J/fW8e+61vpW+dCoL325vBub/0eY2Pn7tjSofX7qnPs+c7+19Mxxj202o/rutqW33L+K/tiVVlEsWDRydU3xKIi7qV8hrI3L167KfTjAUmUETxyM9oA44kFSXVbsw/4wdvvCS/hVrl5Lj0v83mX5znmPRDpI+vAkUgftAnzKs/xPvGavY0Pf+7B2Tjta88sO59LrTplmjHHzKdumzLCCs93tkqI0OPvHZjjNQVW7rkW9eryu7zh63R876pXK23XOd4xuC+iCfCMGKpfVz6jzrNQ6GdvTOAvnr/V3JZ5JC9DzEfkgocf7wzvn/nVx8y/3DKENPkeMfY9qs43v+d8VOfDQpYYm9V9r7UfI6LD3n0xtik786Fc3gvw8C/rQD/XDJfn8vo6Td5XmTbPsWCMeadcBMBCi3LxF3VY7xjM8jxeWn+Y2p/2pwzIgAzIgAzIgAzIgAzIgAzIgAzIwEUhXOP9hYckXlh4T7Jv5YFb9kzO/Ob3c4ZgjKsYgd+76vqZMLAo5IRKJpxny/M080LAG+MllenrI4a+mcFuaWnOKBxhgB/9coiJKaLirUV57LGNkIARu86z9T1FlRRJWmnKcxhu+4Tg8FwtFg+U17Y+Dxk862vSQDxkmOa6NDL31TfzGxKuo5123RpCCUZrvK7xxuW60sBb15fv/L4dhWsYbYmG5T2c/dNfwqMcAYXz597dHx5vePeXiyMQXz587fU5TtMI32XMLsspP5O+S6gr0/F5bpxURv06bdd3xGxClpeCHfeJJ31X385+//ozc9d1lUHbEML/2FeeXBHQFhgjXXkuen5w7Fbtt5a2zT4vxydt2OpP2ON8i8GxZbfKy3YhD/7n99ax7/pW+ta5iLBRbRlRpss5poulMi2fiUJw9LEnZmOJe2i1H7wiICMOIxLX+eT8V/ZFnYbviFgs4Gj9xjnm6BgfS0shMrXKa7X1TLge6IMMv1wKWFmXsfeQ6esjojyLzMotADrbs+A/n0uzZ3DxW11G3/fMZ8bh8nIs4Mr9eWMv8DtWxP2yjuSZIa0J4V3OtV3lscCg1Tet9Kvq1bi/Ulxv5RGL96ZbJBA+m35spVvvOd7Z2M6BUPZEuOjLbxFeeFdknNEWfXmWv0Xodd6z3vz13DVjxjjl8Zws86s/53xUzhWUxXOjtTBgTD/WZfA9x2a+J2Y+lJuf8zfS1+M70yTX9fe6TNKxzzrvHAduuTOiFRHum/focusRmOIcW96QB/VhDMYCs6efn5x6/ZejnrdRPlF+Xn0t3lcoi4U2bH9Q183v/pErAzIgAzIgAzIgAzIgAzIgAzIgAzIgAxcnA9teuMbQj3ELQy9eKYfu2hvibW0kxPCHYYyQxinELQplCN/3PRyGN8rtuh5D88E77gmvzLWUhaFvldF8aSkMpgjyiNNxf+l5/YmdIY6yB2YIQrvvmmAU76pfnkf4RhQZa3TGMNwlBOe+unVY9iyrdUyD54GhkL4Pr3i9src2Av2QGENZacTuqi9p0uA8JFyHh9L9j0Qb422Lhx/e17BU7inaukeMrxejcA3DeF7F/ulToXXWDg3jfX3vaYRP43b9e9d30jeFuoa40hwnjXRdZXWdZ69uxBj4aKVJbsYu+GCsMmZZMIMRHeF/sz21YzwU+9OXHqytz4zJVXPQQNtmn5fjE/5b/RnzVEu4ngqyY8pulZf9BRtD7PVdn/n0HWOev+3u3r2ckxXaoS+v+I3Q0M+9NDd3d42HXDzDnN/KN+e/si9a6caeWz77UUSXIBpBuciD66kjwhT3yiIfnpOE42fubQnSZZkIZMzp7IddC7QbfQ9Z1xaPZZ3yuTSGwfK6+nPmExwuLcUcwPMRAZb5gHeVlict5/BkZv6t26QuI75PxwyL95q/V+N2rl7Vb1wfIblvumNur+06X/qV5xr/+56x9XWLfIc5ImKEkDlisc+F4CXrm/y3tgYZM8bpb+abzK91zPko5orp9iqtcZHXDvVjpquPsfBq162zd5fMh3KpAxFWSnEefoPhKSuZPs/V3+vyyut5b45tegqBmvS5IJQICqd/8VbMMdQnxyBzytFHvzxhe496kUddHt+D4d13Tc7+5a8TtkQgz3juvru/tw9aeXnu4vzj1X6z32RABmRABmRABmRABmRABmRABmTg0mZgWwvXJ198OYxgiMMYyjGCt4xaGL0Iv4rQiEiDpw1e2gvBO91vcqzwnR5TGHXDU6RhIO4qH0NfGuwQCQiriOdVGD+nXkfcUwrxnGdP1DB0Hz8RIkCfR3iWS3ul9yxeoS0BqzxHyNYQGe59cFVa8glD9hU7Iqw59ctyuo5DBs/6ujQQjxFj0ojdZ1TP/Kj3UJ4hsPzbteFpjTGdazr3QC76GuNrpL1Qe1wvLYVxFgHr2JefDI8pyhwSZ97/1rdnhuu6nWEOpuj7egEIoi7iK2Wsuq647zTCp3G7L235G+mH6p7p58ZJUXb+vpZjMtk3foKtEeJ9XX54WH76MytizzqiPtT5jvlOnfvGQp3HWtqWUOXsQXvy5R/O2OhikbFHP3M8f/hIhJsOQWPn7uBrKAQ/0R0Yk4SuJuJES0wdXBAz3eO6Dv1bt0XXdyJcUH4p8tRpcx4aml+4DvZKD0TOdY2HDPFNHeoy+b5Iua3rmb+pS4buJVzx/mtvnjD+6/TUkf+xJ/ejX47+Y86rPSrr63IhDM8Ont/Hn3hqzrN0vfdQl8f3rvYs0+YcMHsGr3FuyXxY7EQ4cIRqwvjjpR+CdUOMJbQ54+LA7j0h1H34o5+uYrusK59zyw/6Bu/4Y1/5+qrnc/kcn22F0FgwRth35onsvzPlnttFO7Dw5sDNd66ku+6WiMZR12uzv18IXvIegv9P3RQLNGpv9HyP6HsmsgBstHD9jW/F85f3i4giVLR71ofjbPHKQFSD8ho+M1/F9h+HDsdYTk6pP4sYKRdxO6/L8Z3fEfEZr/mundeTLtOUx/p62Cm955lreN7W2/dQn3IMZrpWWP2yPD7zPlQvLGOxRX2uvs7vl/YftPav/SsDMiADMiADMiADMiADMiADMiADlw4D21a4xrCKgIbAVosWJYDsm3f43ofmQhBiNMb4RSjBvmtn+eDZ/PIPw6AbokzD4DxLm0bGqfhHHdkPt95re1X6vG5qXE+DHQZCDI2lEIzojidOCD/TcOhhkL/pjjBmkh6BHbG+vG6uzOk+zYjfnEegxKjemX4qhiwifs2VV9xfnh8yeGa6PKaBeIwIlEbsvvpmfrA0lGd4wV17c7QrBlauaXkfZl3ziPGVtH1i7Ji6zrXV8nJ47B577InIl35GNCrL7CuPdPDSJdixEATv9pa3X7YDZWZ5rePFKlwTzjS8rd/+Y+f9Ifoj4oX41OC61R55jvno0J57V5jYuXtOIMg0F+IIY31joS4TPnIOqn+rv6dHOUIx2zTgfZuLdU6+/IOYO+t5BT7O/fc/5ubfbBvmS/a0rcvJ7zl/Eyo7vFeffTFCMOdcPjdWevonGaU/M++xx/C2JszzQ4/1zpmx4GUNixyyHjGv14temLu/8JXZoqNMWx5zThma12bXLC1NWHjAnMDYR/gJvqfPOp4TsVCHsPpVm1JH/nOefqZNeL4ORRXA+5KFDimGI9Ie/+rXZ+258D1U9arryfdme1bXJT+9/C8tzbHbKivzYf4PoZCtTKqyZt+n+zi/d80N0X6IgrTliSefmSB89y204zmGiJxiIwtBWnN3lpX1yj7L8wsfp+8Q8IKYufD1XW2xxvMXgpe4p+XliDyS27HU95nvEX3CNeOVdPW15fecj/Zfe9OE/yx+LH+vP2f6RfuRejJHpwCfPHAeYbfmnvz7ysjru9IMXc8e6a37pT51XVj8RTSCofGkcH3p/BFac+93+1YGZEAGZEAGZEAGZEAGZEAGZEAGZAAGtqVwjWiGMXgolCZ7XGPgChGu8rAOj+hrb5oZiTuBn4bjRswa4/1U5oPhGU8n6hri5e49K2EvMXr3GGcx9NUGu0i/vLziLTPdYxuhJ88j4qRYGeXe93AI+3h61V6zXHP+6LEIZ44nUV9dyt8wDC8ifpXXtj4PGTzra9JAPEaMSSN2X30zP/pmKM+sa/YlR0Spuo71d4yv0fe1+FT0/5i65n7khCrFk5EFERjDS8E6y6ZMBKH0lszzecw9LglnXwscjAuYrc/ntSHY3fbZmdiU5+vjWo3qsJ8c13nW3zvHSdG29TV933NO6F0MMxVrxnjbd5U14+6KHZNTb7w5yFBXPouch7G+sVDnNbZtETfZP7T0lgvx8pEvhejWmnvqssrviG8f/e2/m22CmIcgAfvMd+nxh/f1iaefDw9VhOyl02ei7C5v0SyPuoU4OzAfZ/o85rw+JJ6QHi+/tS5y4PrWJB96qwAAFGlJREFUeMATmjHSJ+7nnNI3rzF3IBQjerJYAEEIEZn7y3vlWO91X/6WdaSes/MjRF0WGeCFOveci358buaZPOYeZmWOHPOt9qzzyLl+rm5F/ojI/Ibglosl6jz4jnDPXE3b9m0ZklzDSb2YbsZaFVq5LA8Pbp4FfXUp0+f9zfVZcX9l2r7PwSEhxQcE1r48NvK3C8EL9aPv6EOei/XY4Pecz3nutu4n2vuu+3ojM0Q+b/8xIjgwv7GAqpVXeW4tz9isy6mf/yIitZBHjO9dt0YUFeZXeCrLgZM+VoZ46ruebVd4lp75/TtzZVJ+S7jmfCwG4hlQiO9lffkMk0Q4yFDhPGeJYpCLO+r0fvcPXhmQARmQARmQARmQARmQARmQARmQARm4uBjYlsJ1ehxjMGwBhTGOvSQRVPr2R0yDZOzL/PG8sZ58ETYQfjGsYQBrlTV0DkMn+WOMTNGTvW4J69zlpYShrzaa4w2NAH9g910TBPnSSJ1CZHkNISYRVigTQSI8IAtPcULMsmdget0M3Qe/YxheRPwaynPI4FlfnwbiPjEmr0kjdl99Mz/aaEye5b6eY8WojRKuw7g89fTGmzEEtw6xAa9JeMMrHyEKzsv/7BOZPB7/96dnXCP0IWQNiY3whliYbR0slt9ZGHHkaIhrfQbv2fXFfZB+3cI1+4O++lqn13ir3AifuuPmlQgO1b2U6VnwwbyCF+QiY6fMg/ZCHGdeGfJKnbuuaKdFzy86dltzUF0mYWXxlGsJczF3fulr4b3O/Ef70nYt4afOl/ZBVIWhM7/+3WwBRs6lCBL1wgp+O/HUs1EekQgQ1UaVtWibTsXVA7fcuSqM7/K5c3PzMmGb6WPGK+GcV93niLLr8RBt8NBjnSJalpHzX++8NhWPeT7QP3Njelq3FS/4vb2RTagj/7PsMccu0TP7EaYYZ8zNGxneN9uTZyhibxlCOz9nKG1EZz7n+TxmvZhDe8XraaSWzufs0tLkw5++HvdJXcrwyWUbwjqL9FgcwnOg/I1xRpjlrnehMm1+XvS5m9eVR+pEOH+eK+X5rfycz9pe5keMufIeEFZpd7ZqqeecTBfz4DU3Rj+05pxZSO+Hvtj/bJ0+F3huDz2DKXstz1g4iXt5/+SEiAe8U8IxWx7wjkifMjbz3jgOje98/+yaA7quR1w+ePs9ne8yJ77xrVXvwdQn+R3aTgKxOhf5MQfXY6e8Rz9fXH+Y2l/2lwzIgAzIgAzIgAzIgAzIgAzIgAzIwLYUrgPMhlfXxwcOrQjNt+xpeo7VQCM84bWB4R5RpfydkITs6YzANMaIWF5bf05jPKEmMWLXZdXpMfSlCI0x+9hXnozvIcKzt+sPfxJeJxiN+cw9YHzMsN+ZH4ZBvEww/Idn7lS45r4RkxYxdpPnouJX1qPrmAbILoMnhuLjT35zdq+03ViRuavMi/k8/Y1nacs4Xt4XghlG3RSnabP6fyyewBv/1OkZ98FIj2hbllF+hqeT334lBBhE58OfezAM0sHkV5+a5V9e0/UZFlK4xgsLTlMwqo+Epm6KS3v3hZjKPfcJDtSB8YVohNfpmT/8ab6uS0sTwkgjGh3/2tMh0qToX3uldd3Pdjk/NHYx8jPXwRjbIdAHOQd13gPt88wLsSVBuZCmTM8CC/qgxSKiN+XwHx5rRjn/4Wuvz/EO+10CEuXW5RF6Ocq48fYQYEqG2Fs5yw/P2Kt2xb3MIllUIld4xu57bHLk849MWmlY3BT87ty9ck/XrOwV3OWJWbZT1+dyPJCGBRlDTJOO/qY9h0S85fPnJ/xvlR+exTwDn3+pKWpzDd7tjI+uObyZ75Doubwci7N4diUTIWTTrlU/Ht33+OTALXuivelPQtO3ysxz2Z5Eo4jFESc/6E2f1635yDO3mlNhmH6hvtR/jBcocyHiYh3WPubIx55YaBHN0HN36F4ZB0S9qb3Dh6670L9vqHBdhm5/9Mtzz8n6Png/RGxmjoPZco7hczn/sbimvr78DhvlM7n8rf68FuGa8suFIJTH4oyTL748OfXGr1bmv7NnJyeefi4W3fAOzNx89OHHZ/XmeQ+HiMHMnykO461d15HvjLl6fkDs53017zWfw7y30GaMC6LLdD2DTv/yrQn7wbfK85x/uMqADMiADMiADMiADMiADMiADMiADMjApc/A9hWuC1EB4y3iLSIngnOXiNICFrEBIxzGuPydEKxhVCv2Dc7f1nxcXo66YSgcygMjHwY7PGdPvvCd1UL38nJ4gGM4TMN+V9ja8r6yXARrBKdF2olrQ/z65PWTM799e/Aesqy+4xgDOobNk9/9fnhScq8IF10hsPvK8rdNmKyWllZC2e+6NbhEaFmUlRSWMMrDJ5EG4GSj+w+xAa5iYcePXlslLpXlRbQDhIki5D+LA8o02/1zjN2rb+herLK8HKJvCjCIMOFNWsyzzXtsCHOtdESXYCENAkkpNiJ8tERr2npMKP5WWZzL8pjngqkbb4/w+Qig2Y9zxyt29JbHcwIBKkK7F5ErWuWnlyb5x/7E6xBHy/FA+8W+3iPyo78pn2Orjr3n2JLird9G3fsiO5DHbA4vhK2+vHn+4RH/wSuvDj9/ps9MOETkZaHDXJ8VC3IQz/sWNGSdyvbMc5t1ROTnvYLFL3had0VcadUnxcIy8gvniJiB52zrmq5z2WfrihoxNC9swe/vP/dSjPWP9x9cqD3qduLZwN7ivF/V0W3qtPmdd5LZ3Flwmbzitc1ctN5FkFkex0WFaxZIEJ6/9Q5KvYguRKSeLAOueK9kzoyIDHWfsnDp+Zfi91Y0gMyHMcf//N53DAGbBYrTCEX1Ysy+a/1tE97xagb8Popr2ZRNGZABGZABGZABGZABGZABGZABGdh4Bi4K4fpS63iE9CHBgHvGYwyBG49sDH6j2mFpKfZPDO/aBY1OiJAYX0eXNZA/BnQ8t8bcK2Xj/bNZoZVHteXA/V2ueUS0grs/v2L0X7CNWHzSF95/3W069aLGg+zM7/7QK1iXZWHY5xo8rzeK/zL/C/0Z4WGMcBIeeA8/HqJ1S+C40PXcbvkT/pt2Q2hdRHRCRGPR0SLXtO6d+RERDVGW6BrpodhKW55jcRLiaO3tW6ZpfeZ+qfep198cdS1zOM+rMaIx5XEPiy5mqetJmYh2/EcwxPuyFNzq9OV35pe1tEuZx3b5jNdq3z7nXfWc7QH/9h+HFw8sOH93lXmxnMeLN6LRLPBs2Kp7I3IPz6Qx70/Ukedd16I/ng+tRS48i9lCpOseY0HFcy911gHW8KCOBQBjWVpejjmPqCY+gzb+j7quvvS8bS0DMiADMiADMiADMiADMiADMiADMnAxMaBwPdbYZrpO4+bFBLx1dYKWARmQARmQARmQARmQARmQARmQARmQARmQARmQARmQARmQARmQge3HgMK1grSCtAzIgAzIgAzIgAzIgAzIgAzIgAzIgAzIgAzIgAzIgAzIgAzIgAzIgAxsKQMK1wK4pQC6mmX7rWaxT+wTGZABGZABGZABGZABGZABGZABGZABGZABGZABGZABGZABGZCBzWZA4VrhWuFaBmRABmRABmRABmRABmRABmRABmRABmRABmRABmRABmRABmRABmRABraUAYVrAdxSADd7pYbluTpIBmRABmRABmRABmRABmRABmRABmRABmRABmRABmRABmRABmRABrYfAwrXCtcK1zIgAzIgAzIgAzIgAzIgAzIgAzIgAzIgAzIgAzIgAzIgAzIgAzIgAzKwpQwoXAvglgLoapbtt5rFPrFPZEAGZEAGZEAGZEAGZEAGZEAGZEAGZEAGZEAGZEAGZEAGZEAGNpsBhWuFa4VrGZABGZABGZABGZABGZABGZABGZABGZABGZABGZABGZABGZABGZABGdhSBhSuBXBLAdzslRqW5+ogGZABGZABGZABGZABGZABGZABGZABGZABGZABGZABGZABGZABGdh+DChcK1wrXMuADMiADMiADMiADMiADMiADMiADMiADMiADMiADMiADMiADMiADMjAljKgcC2AWwqgq1m232oW+8Q+kQEZkAEZkAEZkAEZkAEZkAEZkAEZkAEZkAEZkAEZkAEZkAEZ2GwGFK4VrhWuZUAGZEAGZEAGZEAGZEAGZEAGZEAGZEAGZEAGZEAGZEAGZEAGZEAGZGBLGVC4FsAtBXCzV2pYnquDZEAGZEAGZEAGZEAGZEAGZEAGZEAGZEAGZEAGZEAGZEAGZEAGZGD7MaBwrXCtcC0DMiADMiADMiADMiADMiADMiADMiADMiADMiADMiADMiADMiADMiADW8qAwrUAbimArmbZfqtZ7BP7RAZkQAZkQAZkQAZkQAZkQAZkQAZkQAZkQAZkQAZkQAZkQAZkYLMZULhWuFa4lgEZkAEZkAEZkAEZkAEZkAEZkAEZkAEZkAEZkAEZkAEZkAEZkAEZkIEtZUDhWgC3FMDNXqlhea4OkgEZkAEZkAEZkAEZkAEZkAEZkAEZkAEZkAEZkAEZkAEZkAEZkIHtx4DCtcK1wrUMyIAMyIAMyIAMyIAMyIAMyIAMyIAMyIAMyIAMyIAMyIAMyIAMyIAMbCkDCtcCuKUAuppl+61msU/sExmQARmQARmQARmQARmQARmQARmQARmQARmQARmQARmQARmQgc1mQOFa4VrhWgZkQAZkQAZkQAZkQAZkQAZkQAZkQAZkQAZkQAZkQAZkQAZkQAZkQAa2lAGFawHcUgA3e6WG5bk6SAZkQAZkQAZkQAZkQAZkQAZkQAZkQAZkQAZkQAZkQAZkQAZkQAa2HwMK1wrXCtcyIAMyIAMyIAMyIAMyIAMyIAMyIAMyIAMyIAMyIAMyIAMyIAMyIAMysKUMKFwL4JYC6GqW7beaxT6xT2RABmRABmRABmRABmRABmRABmRABmRABmRABmRABmRABmRABjabAYVrhWuFaxmQARmQARmQARmQARmQARmQARmQARmQARmQARmQARmQARmQARmQARnYUgYUrgVwSwHc7JUalufqIBmQARmQARmQARmQARmQARmQARmQARmQARmQARmQARmQARmQARnYfgwoXCtcK1zLgAzIgAzIgAzIgAzIgAzIgAzIgAzIgAzIgAzIgAzIgAzIgAzIgAzIwJYyoHAtgFsKoKtZtt9qFvvEPpEBGZABGZABGZABGZABGZABGZABGZABGZABGZABGZABGZABGdhsBhSuFa4VrmVABmRABmRABmRABmRABmRABmRABmRABmRABmRABmRABmRABmRABmRgSxlQuBbALQVws1dqWJ6rg2RABmRABmRABmRABmRABmRABmRABmRABmRABmRABmRABmRABmRg+zGgcK1wrXAtAzIgAzIgAzIgAzIgAzIgAzIgAzIgAzIgAzIgAzIgAzIgAzIgAzIgA1vKgMK1AG4pgK5m2X6rWewT+0QGZEAGZEAGZEAGZEAGZEAGZEAGZEAGZEAGZEAGZEAGZEAGZGCzGVC4VrhWuJYBGZABGZABGZABGZABGZABGZABGZABGZABGZABGZABGZABGZABGZCBLWVA4VoAtxTAzV6pYXmuDpIBGZABGZABGZABGZABGZABGZABGZABGZABGZABGZABGZABGZCB7ceAwrXCtcK1DMiADMiADMiADMiADMiADMiADMiADMiADMiADMiADMiADMiADMiADGwpAwrXArilALqaZfutZrFP7BMZkAEZkAEZkAEZkAEZkAEZkAEZkAEZkAEZkAEZkAEZkAEZkIHNZkDhWuFa4VoGZEAGZEAGZEAGZEAGZEAGZEAGZEAGZEAGZEAGZEAGZEAGZEAGZEAGtpQBhWsB3FIAN3ulhuW5OkgGZEAGZEAGZEAGZEAGZEAGZEAGZEAGZEAGZEAGZEAGZEAGZEAGth8DCtcK1wrXMiADMiADMiADMiADMiADMiADMiADMiADMiADMiADMiADMiADMiADMrClDChcC+CWAuhqlu23msU+sU9kQAZkQAZkQAZkQAZkQAZkQAZkQAZkQAZkQAZkQAZkQAZkQAY2mwGFa4VrhWsZkAEZkAEZkAEZkAEZkAEZkAEZkAEZkAEZkAEZkAEZkAEZkAEZkAEZ2FIGFK4FcEsB3OyVGpbn6iAZkAEZkAEZkAEZkAEZkAEZkAEZkAEZkAEZkAEZkAEZkAEZkAEZ2H4MKFwrXCtcy4AMyIAMyIAMyIAMyIAMyIAMyIAMyIAMyIAMyIAMyIAMyIAMyIAMyMCWMhDC9f/8z/9saSVc0bD9VjTYJ/aJDMiADMiADMiADMiADMiADMiADMiADMiADMiADMiADMiADMiADMjAZjGgcO3KCRctyIAMyIAMyIAMyIAMyIAMyIAMyIAMyIAMyIAMyIAMyIAMyIAMyIAMyMCWMhDC9f/93/9taSU2S6W3HFeEyIAMyIAMyIAMyIAMyIAMyIAMyIAMyIAMyIAMyIAMyIAMyIAMyIAMyMD2YyCE68lkMjFc+PbrHAeMfSIDMiADMiADMiADMiADMiADMiADMiADMiADMiADMiADMiADMiADMnCpM4BWPROu9boW+EsdeO9PxmVABmRABmRABmRABmRABmRABmRABmRABmRABmRABmRABmRABmRg+zGAVj0TrvG6/t///V9Dhhu7XgZkQAZkQAZkQAZkQAZkQAZkQAZkQAZkQAZkQAZkQAZkQAZkQAZkQAZkYFMYQKPm35xwrXi9/VYXuOLDPpEBGZABGZABGZABGZABGZABGZABGZABGZABGZABGZABGZABGZABGbgUGUjRuilccxJXbPe8Fv5LEX7vSa5lQAZkQAZkQAZkQAZkQAZkQAZkQAZkQAZkQAZkQAZkQAZkQAZkYGsZQItGky7/rfK4Ln9MAVsRe2s7zoFj+8uADMiADMiADMiADMiADMiADMiADMiADMiADMiADMiADMiADMiADFzMDKA5twTr1Kf/P/aRcWK6lECqAAAAAElFTkSuQmCC;clipPath=inset(30% 51% 0% 1.67%);" vertex="1" parent="1">
          <mxGeometry x="827" width="608.59" height="120" as="geometry" />
        </mxCell>
        <mxCell id="Z0fIvfkE5pDTjnEpisLO-11" style="edgeStyle=orthogonalEdgeStyle;rounded=0;orthogonalLoop=1;jettySize=auto;html=1;exitX=0.5;exitY=1;exitDx=0;exitDy=0;exitPerimeter=0;entryX=0.5;entryY=0;entryDx=0;entryDy=0;" edge="1" parent="1" source="Z0fIvfkE5pDTjnEpisLO-2" target="Z0fIvfkE5pDTjnEpisLO-5">
          <mxGeometry relative="1" as="geometry" />
        </mxCell>
        <mxCell id="Z0fIvfkE5pDTjnEpisLO-2" value="Sass下发删除人像库请求" style="strokeWidth=2;html=1;shape=mxgraph.flowchart.start_1;whiteSpace=wrap;fillColor=#d5e8d4;strokeColor=#82b366;" vertex="1" parent="1">
          <mxGeometry x="1140" y="150" width="100" height="60" as="geometry" />
        </mxCell>
        <mxCell id="Z0fIvfkE5pDTjnEpisLO-12" style="edgeStyle=orthogonalEdgeStyle;rounded=0;orthogonalLoop=1;jettySize=auto;html=1;exitX=0.5;exitY=1;exitDx=0;exitDy=0;entryX=0.5;entryY=0;entryDx=0;entryDy=0;" edge="1" parent="1" source="Z0fIvfkE5pDTjnEpisLO-5" target="Z0fIvfkE5pDTjnEpisLO-7">
          <mxGeometry relative="1" as="geometry" />
        </mxCell>
        <mxCell id="Z0fIvfkE5pDTjnEpisLO-5" value="参数检验" style="rounded=0;whiteSpace=wrap;html=1;fillColor=#dae8fc;strokeColor=#6c8ebf;" vertex="1" parent="1">
          <mxGeometry x="1145.5" y="240" width="89" height="40" as="geometry" />
        </mxCell>
        <mxCell id="Z0fIvfkE5pDTjnEpisLO-13" style="edgeStyle=orthogonalEdgeStyle;rounded=0;orthogonalLoop=1;jettySize=auto;html=1;exitX=0.5;exitY=1;exitDx=0;exitDy=0;entryX=0.5;entryY=0;entryDx=0;entryDy=0;" edge="1" parent="1" source="Z0fIvfkE5pDTjnEpisLO-7" target="Z0fIvfkE5pDTjnEpisLO-8">
          <mxGeometry relative="1" as="geometry" />
        </mxCell>
        <mxCell id="Z0fIvfkE5pDTjnEpisLO-7" value="从数据表Repository中查询该库" style="rounded=0;whiteSpace=wrap;html=1;fillColor=#dae8fc;strokeColor=#6c8ebf;" vertex="1" parent="1">
          <mxGeometry x="1130" y="310" width="120" height="50" as="geometry" />
        </mxCell>
        <mxCell id="Z0fIvfkE5pDTjnEpisLO-10" style="edgeStyle=orthogonalEdgeStyle;rounded=0;orthogonalLoop=1;jettySize=auto;html=1;exitX=1;exitY=0.5;exitDx=0;exitDy=0;" edge="1" parent="1" source="Z0fIvfkE5pDTjnEpisLO-8" target="Z0fIvfkE5pDTjnEpisLO-9">
          <mxGeometry relative="1" as="geometry" />
        </mxCell>
        <mxCell id="Z0fIvfkE5pDTjnEpisLO-15" style="edgeStyle=orthogonalEdgeStyle;rounded=0;orthogonalLoop=1;jettySize=auto;html=1;exitX=0.5;exitY=1;exitDx=0;exitDy=0;entryX=0.5;entryY=0;entryDx=0;entryDy=0;" edge="1" parent="1" source="Z0fIvfkE5pDTjnEpisLO-8" target="Z0fIvfkE5pDTjnEpisLO-14">
          <mxGeometry relative="1" as="geometry" />
        </mxCell>
        <mxCell id="Z0fIvfkE5pDTjnEpisLO-16" value="Yes" style="edgeLabel;html=1;align=center;verticalAlign=middle;resizable=0;points=[];" vertex="1" connectable="0" parent="Z0fIvfkE5pDTjnEpisLO-15">
          <mxGeometry x="-0.2" relative="1" as="geometry">
            <mxPoint as="offset" />
          </mxGeometry>
        </mxCell>
        <mxCell id="Z0fIvfkE5pDTjnEpisLO-8" value="库是否存在" style="rhombus;whiteSpace=wrap;html=1;fillColor=#fff2cc;strokeColor=#d6b656;" vertex="1" parent="1">
          <mxGeometry x="1150" y="390" width="80" height="80" as="geometry" />
        </mxCell>
        <mxCell id="Z0fIvfkE5pDTjnEpisLO-9" value="返回成功" style="strokeWidth=2;html=1;shape=mxgraph.flowchart.start_1;whiteSpace=wrap;fillColor=#d5e8d4;strokeColor=#82b366;" vertex="1" parent="1">
          <mxGeometry x="1270" y="410" width="80" height="40" as="geometry" />
        </mxCell>
        <mxCell id="Z0fIvfkE5pDTjnEpisLO-21" style="edgeStyle=orthogonalEdgeStyle;rounded=0;orthogonalLoop=1;jettySize=auto;html=1;exitX=0.5;exitY=1;exitDx=0;exitDy=0;entryX=0.5;entryY=0;entryDx=0;entryDy=0;" edge="1" parent="1" source="Z0fIvfkE5pDTjnEpisLO-14" target="Z0fIvfkE5pDTjnEpisLO-17">
          <mxGeometry relative="1" as="geometry" />
        </mxCell>
        <mxCell id="Z0fIvfkE5pDTjnEpisLO-14" value="从数据表surveillance、channelAnalysis、nvn中查询该人像库是否正在使用" style="rounded=0;whiteSpace=wrap;html=1;fillColor=#dae8fc;strokeColor=#6c8ebf;" vertex="1" parent="1">
          <mxGeometry x="1125" y="500" width="130" height="70" as="geometry" />
        </mxCell>
        <mxCell id="Z0fIvfkE5pDTjnEpisLO-23" style="edgeStyle=orthogonalEdgeStyle;rounded=0;orthogonalLoop=1;jettySize=auto;html=1;exitX=0.5;exitY=1;exitDx=0;exitDy=0;entryX=0.5;entryY=0;entryDx=0;entryDy=0;" edge="1" parent="1" source="Z0fIvfkE5pDTjnEpisLO-17" target="Z0fIvfkE5pDTjnEpisLO-22">
          <mxGeometry relative="1" as="geometry" />
        </mxCell>
        <mxCell id="Z0fIvfkE5pDTjnEpisLO-24" value="No" style="edgeLabel;html=1;align=center;verticalAlign=middle;resizable=0;points=[];" vertex="1" connectable="0" parent="Z0fIvfkE5pDTjnEpisLO-23">
          <mxGeometry x="-0.3" y="-1" relative="1" as="geometry">
            <mxPoint as="offset" />
          </mxGeometry>
        </mxCell>
        <mxCell id="Z0fIvfkE5pDTjnEpisLO-17" value="正在使用" style="rhombus;whiteSpace=wrap;html=1;fillColor=#fff2cc;strokeColor=#d6b656;" vertex="1" parent="1">
          <mxGeometry x="1150" y="590" width="80" height="60" as="geometry" />
        </mxCell>
        <mxCell id="Z0fIvfkE5pDTjnEpisLO-18" value="返回失败" style="strokeWidth=2;html=1;shape=mxgraph.flowchart.start_1;whiteSpace=wrap;fillColor=#f8cecc;strokeColor=#b85450;" vertex="1" parent="1">
          <mxGeometry x="1270" y="600" width="80" height="40" as="geometry" />
        </mxCell>
        <mxCell id="Z0fIvfkE5pDTjnEpisLO-19" style="edgeStyle=orthogonalEdgeStyle;rounded=0;orthogonalLoop=1;jettySize=auto;html=1;exitX=1;exitY=0.5;exitDx=0;exitDy=0;entryX=0;entryY=0.5;entryDx=0;entryDy=0;entryPerimeter=0;" edge="1" parent="1" source="Z0fIvfkE5pDTjnEpisLO-17" target="Z0fIvfkE5pDTjnEpisLO-18">
          <mxGeometry relative="1" as="geometry" />
        </mxCell>
        <mxCell id="Z0fIvfkE5pDTjnEpisLO-20" value="Yes" style="edgeLabel;html=1;align=center;verticalAlign=middle;resizable=0;points=[];" vertex="1" connectable="0" parent="Z0fIvfkE5pDTjnEpisLO-19">
          <mxGeometry x="-0.05" y="2" relative="1" as="geometry">
            <mxPoint as="offset" />
          </mxGeometry>
        </mxCell>
        <mxCell id="Z0fIvfkE5pDTjnEpisLO-27" style="edgeStyle=orthogonalEdgeStyle;rounded=0;orthogonalLoop=1;jettySize=auto;html=1;exitX=0;exitY=0.5;exitDx=0;exitDy=0;entryX=1;entryY=0.5;entryDx=0;entryDy=0;" edge="1" parent="1" source="Z0fIvfkE5pDTjnEpisLO-22" target="Z0fIvfkE5pDTjnEpisLO-25">
          <mxGeometry relative="1" as="geometry" />
        </mxCell>
        <mxCell id="Z0fIvfkE5pDTjnEpisLO-30" style="edgeStyle=orthogonalEdgeStyle;rounded=0;orthogonalLoop=1;jettySize=auto;html=1;exitX=1;exitY=0.5;exitDx=0;exitDy=0;" edge="1" parent="1" source="Z0fIvfkE5pDTjnEpisLO-22">
          <mxGeometry relative="1" as="geometry">
            <mxPoint x="1290" y="710" as="targetPoint" />
          </mxGeometry>
        </mxCell>
        <mxCell id="Z0fIvfkE5pDTjnEpisLO-34" style="edgeStyle=orthogonalEdgeStyle;rounded=0;orthogonalLoop=1;jettySize=auto;html=1;exitX=0.5;exitY=1;exitDx=0;exitDy=0;entryX=0.5;entryY=0;entryDx=0;entryDy=0;" edge="1" parent="1" source="Z0fIvfkE5pDTjnEpisLO-22" target="Z0fIvfkE5pDTjnEpisLO-31">
          <mxGeometry relative="1" as="geometry" />
        </mxCell>
        <mxCell id="Z0fIvfkE5pDTjnEpisLO-22" value="更新数据表Repository、Repository_Resource状态" style="rounded=0;whiteSpace=wrap;html=1;fillColor=#dae8fc;strokeColor=#6c8ebf;" vertex="1" parent="1">
          <mxGeometry x="1117.5" y="680" width="145" height="60" as="geometry" />
        </mxCell>
        <mxCell id="Z0fIvfkE5pDTjnEpisLO-25" value="抓拍库更新为-9（删除MySQL中表记录）" style="rounded=0;whiteSpace=wrap;html=1;fillColor=#e1d5e7;strokeColor=#9673a6;" vertex="1" parent="1">
          <mxGeometry x="970" y="688.5" width="120" height="43" as="geometry" />
        </mxCell>
        <mxCell id="Z0fIvfkE5pDTjnEpisLO-26" value="其它库更新为-2（待清空）" style="rounded=0;whiteSpace=wrap;html=1;fillColor=#e1d5e7;strokeColor=#9673a6;" vertex="1" parent="1">
          <mxGeometry x="1292" y="688.5" width="120" height="45" as="geometry" />
        </mxCell>
        <mxCell id="Z0fIvfkE5pDTjnEpisLO-35" style="edgeStyle=orthogonalEdgeStyle;rounded=0;orthogonalLoop=1;jettySize=auto;html=1;exitX=0.5;exitY=1;exitDx=0;exitDy=0;entryX=0.5;entryY=0;entryDx=0;entryDy=0;" edge="1" parent="1" source="Z0fIvfkE5pDTjnEpisLO-31" target="Z0fIvfkE5pDTjnEpisLO-32">
          <mxGeometry relative="1" as="geometry" />
        </mxCell>
        <mxCell id="Z0fIvfkE5pDTjnEpisLO-31" value="将保存的库与对应的库资源关系删除" style="rounded=0;whiteSpace=wrap;html=1;fillColor=#dae8fc;strokeColor=#6c8ebf;" vertex="1" parent="1">
          <mxGeometry x="1125" y="770" width="120" height="60" as="geometry" />
        </mxCell>
        <mxCell id="Z0fIvfkE5pDTjnEpisLO-36" style="edgeStyle=orthogonalEdgeStyle;rounded=0;orthogonalLoop=1;jettySize=auto;html=1;exitX=0.5;exitY=1;exitDx=0;exitDy=0;entryX=0.5;entryY=0;entryDx=0;entryDy=0;" edge="1" parent="1" source="Z0fIvfkE5pDTjnEpisLO-32" target="Z0fIvfkE5pDTjnEpisLO-33">
          <mxGeometry relative="1" as="geometry" />
        </mxCell>
        <mxCell id="Z0fIvfkE5pDTjnEpisLO-32" value="聚类业务，通过MQ将库ID发送，具体删除逻辑由消费者执行" style="rounded=0;whiteSpace=wrap;html=1;fillColor=#dae8fc;strokeColor=#6c8ebf;" vertex="1" parent="1">
          <mxGeometry x="1125" y="860" width="120" height="60" as="geometry" />
        </mxCell>
        <mxCell id="Z0fIvfkE5pDTjnEpisLO-33" value="将内存Cache中(Map)保存的库资源关系删除" style="rounded=0;whiteSpace=wrap;html=1;fillColor=#dae8fc;strokeColor=#6c8ebf;" vertex="1" parent="1">
          <mxGeometry x="1123" y="950" width="122" height="50" as="geometry" />
        </mxCell>
        <mxCell id="Z0fIvfkE5pDTjnEpisLO-37" value="返回成功" style="strokeWidth=2;html=1;shape=mxgraph.flowchart.start_1;whiteSpace=wrap;fillColor=#d5e8d4;strokeColor=#82b366;" vertex="1" parent="1">
          <mxGeometry x="1140" y="1030" width="90" height="40" as="geometry" />
        </mxCell>
        <mxCell id="Z0fIvfkE5pDTjnEpisLO-38" style="edgeStyle=orthogonalEdgeStyle;rounded=0;orthogonalLoop=1;jettySize=auto;html=1;exitX=0.5;exitY=1;exitDx=0;exitDy=0;entryX=0.5;entryY=0;entryDx=0;entryDy=0;entryPerimeter=0;" edge="1" parent="1" source="Z0fIvfkE5pDTjnEpisLO-33" target="Z0fIvfkE5pDTjnEpisLO-37">
          <mxGeometry relative="1" as="geometry" />
        </mxCell>
        <mxCell id="Z0fIvfkE5pDTjnEpisLO-40" value="过程中有执行失败，则抛出错误或返回失败信息；涉及到数据库的操作会执行回滚" style="text;html=1;align=center;verticalAlign=middle;whiteSpace=wrap;rounded=0;strokeColor=#d79b00;dashed=1;fillColor=#ffe6cc;" vertex="1" parent="1">
          <mxGeometry x="920" y="820" width="148" height="80" as="geometry" />
        </mxCell>
      </root>
    </mxGraphModel>
  </diagram>
</mxfile>
